<mxfile host="Electron" modified="2024-06-10T20:49:20.116Z" agent="Mozilla/5.0 (Macintosh; Intel Mac OS X 10_15_7) AppleWebKit/537.36 (KHTML, like Gecko) draw.io/24.5.1 Chrome/124.0.6367.207 Electron/30.0.6 Safari/537.36" etag="hUPyF1oWtmdSv77LU2W3" version="24.5.1" type="device" pages="3">
  <diagram name="Page-1" id="90a13364-a465-7bf4-72fc-28e22215d7a0">
    <mxGraphModel dx="1446" dy="1007" grid="1" gridSize="10" guides="1" tooltips="1" connect="1" arrows="1" fold="1" page="1" pageScale="1.5" pageWidth="1169" pageHeight="826" background="none" math="0" shadow="0">
      <root>
        <mxCell id="0" style=";html=1;" />
        <mxCell id="1" style=";html=1;" parent="0" />
        <mxCell id="-LTJIv0S8f1JqJ6JOklE-158" value="" style="shape=table;startSize=0;container=1;collapsible=0;childLayout=tableLayout;" vertex="1" parent="1">
          <mxGeometry x="1040" y="666" width="240" height="40" as="geometry" />
        </mxCell>
        <mxCell id="-LTJIv0S8f1JqJ6JOklE-159" value="" style="shape=tableRow;horizontal=0;startSize=0;swimlaneHead=0;swimlaneBody=0;strokeColor=inherit;top=0;left=0;bottom=0;right=0;collapsible=0;dropTarget=0;fillColor=none;points=[[0,0.5],[1,0.5]];portConstraint=eastwest;" vertex="1" parent="-LTJIv0S8f1JqJ6JOklE-158">
          <mxGeometry width="240" height="40" as="geometry" />
        </mxCell>
        <mxCell id="-LTJIv0S8f1JqJ6JOklE-160" value="" style="shape=partialRectangle;html=1;whiteSpace=wrap;connectable=0;strokeColor=inherit;overflow=hidden;fillColor=none;top=0;left=0;bottom=0;right=0;pointerEvents=1;" vertex="1" parent="-LTJIv0S8f1JqJ6JOklE-159">
          <mxGeometry width="60" height="40" as="geometry">
            <mxRectangle width="60" height="40" as="alternateBounds" />
          </mxGeometry>
        </mxCell>
        <mxCell id="-LTJIv0S8f1JqJ6JOklE-161" value="" style="shape=partialRectangle;html=1;whiteSpace=wrap;connectable=0;strokeColor=inherit;overflow=hidden;fillColor=none;top=0;left=0;bottom=0;right=0;pointerEvents=1;" vertex="1" parent="-LTJIv0S8f1JqJ6JOklE-159">
          <mxGeometry x="60" width="60" height="40" as="geometry">
            <mxRectangle width="60" height="40" as="alternateBounds" />
          </mxGeometry>
        </mxCell>
        <mxCell id="-LTJIv0S8f1JqJ6JOklE-162" value="" style="shape=partialRectangle;html=1;whiteSpace=wrap;connectable=0;strokeColor=inherit;overflow=hidden;fillColor=none;top=0;left=0;bottom=0;right=0;pointerEvents=1;" vertex="1" parent="-LTJIv0S8f1JqJ6JOklE-159">
          <mxGeometry x="120" width="60" height="40" as="geometry">
            <mxRectangle width="60" height="40" as="alternateBounds" />
          </mxGeometry>
        </mxCell>
        <mxCell id="-LTJIv0S8f1JqJ6JOklE-163" value="" style="shape=partialRectangle;html=1;whiteSpace=wrap;connectable=0;strokeColor=inherit;overflow=hidden;fillColor=none;top=0;left=0;bottom=0;right=0;pointerEvents=1;" vertex="1" parent="-LTJIv0S8f1JqJ6JOklE-159">
          <mxGeometry x="180" width="60" height="40" as="geometry">
            <mxRectangle width="60" height="40" as="alternateBounds" />
          </mxGeometry>
        </mxCell>
        <mxCell id="-LTJIv0S8f1JqJ6JOklE-152" value="" style="shape=table;startSize=0;container=1;collapsible=0;childLayout=tableLayout;" vertex="1" parent="1">
          <mxGeometry x="1040" y="607" width="240" height="40" as="geometry" />
        </mxCell>
        <mxCell id="-LTJIv0S8f1JqJ6JOklE-153" value="" style="shape=tableRow;horizontal=0;startSize=0;swimlaneHead=0;swimlaneBody=0;strokeColor=inherit;top=0;left=0;bottom=0;right=0;collapsible=0;dropTarget=0;fillColor=none;points=[[0,0.5],[1,0.5]];portConstraint=eastwest;" vertex="1" parent="-LTJIv0S8f1JqJ6JOklE-152">
          <mxGeometry width="240" height="40" as="geometry" />
        </mxCell>
        <mxCell id="-LTJIv0S8f1JqJ6JOklE-154" value="" style="shape=partialRectangle;html=1;whiteSpace=wrap;connectable=0;strokeColor=inherit;overflow=hidden;fillColor=none;top=0;left=0;bottom=0;right=0;pointerEvents=1;" vertex="1" parent="-LTJIv0S8f1JqJ6JOklE-153">
          <mxGeometry width="60" height="40" as="geometry">
            <mxRectangle width="60" height="40" as="alternateBounds" />
          </mxGeometry>
        </mxCell>
        <mxCell id="-LTJIv0S8f1JqJ6JOklE-155" value="" style="shape=partialRectangle;html=1;whiteSpace=wrap;connectable=0;strokeColor=inherit;overflow=hidden;fillColor=none;top=0;left=0;bottom=0;right=0;pointerEvents=1;" vertex="1" parent="-LTJIv0S8f1JqJ6JOklE-153">
          <mxGeometry x="60" width="60" height="40" as="geometry">
            <mxRectangle width="60" height="40" as="alternateBounds" />
          </mxGeometry>
        </mxCell>
        <mxCell id="-LTJIv0S8f1JqJ6JOklE-156" value="" style="shape=partialRectangle;html=1;whiteSpace=wrap;connectable=0;strokeColor=inherit;overflow=hidden;fillColor=none;top=0;left=0;bottom=0;right=0;pointerEvents=1;" vertex="1" parent="-LTJIv0S8f1JqJ6JOklE-153">
          <mxGeometry x="120" width="60" height="40" as="geometry">
            <mxRectangle width="60" height="40" as="alternateBounds" />
          </mxGeometry>
        </mxCell>
        <mxCell id="-LTJIv0S8f1JqJ6JOklE-157" value="" style="shape=partialRectangle;html=1;whiteSpace=wrap;connectable=0;strokeColor=inherit;overflow=hidden;fillColor=none;top=0;left=0;bottom=0;right=0;pointerEvents=1;" vertex="1" parent="-LTJIv0S8f1JqJ6JOklE-153">
          <mxGeometry x="180" width="60" height="40" as="geometry">
            <mxRectangle width="60" height="40" as="alternateBounds" />
          </mxGeometry>
        </mxCell>
        <mxCell id="-LTJIv0S8f1JqJ6JOklE-146" value="" style="shape=table;startSize=0;container=1;collapsible=0;childLayout=tableLayout;" vertex="1" parent="1">
          <mxGeometry x="1040" y="536" width="240" height="40" as="geometry" />
        </mxCell>
        <mxCell id="-LTJIv0S8f1JqJ6JOklE-147" value="" style="shape=tableRow;horizontal=0;startSize=0;swimlaneHead=0;swimlaneBody=0;strokeColor=inherit;top=0;left=0;bottom=0;right=0;collapsible=0;dropTarget=0;fillColor=none;points=[[0,0.5],[1,0.5]];portConstraint=eastwest;" vertex="1" parent="-LTJIv0S8f1JqJ6JOklE-146">
          <mxGeometry width="240" height="40" as="geometry" />
        </mxCell>
        <mxCell id="-LTJIv0S8f1JqJ6JOklE-148" value="" style="shape=partialRectangle;html=1;whiteSpace=wrap;connectable=0;strokeColor=inherit;overflow=hidden;fillColor=none;top=0;left=0;bottom=0;right=0;pointerEvents=1;" vertex="1" parent="-LTJIv0S8f1JqJ6JOklE-147">
          <mxGeometry width="60" height="40" as="geometry">
            <mxRectangle width="60" height="40" as="alternateBounds" />
          </mxGeometry>
        </mxCell>
        <mxCell id="-LTJIv0S8f1JqJ6JOklE-149" value="" style="shape=partialRectangle;html=1;whiteSpace=wrap;connectable=0;strokeColor=inherit;overflow=hidden;fillColor=none;top=0;left=0;bottom=0;right=0;pointerEvents=1;" vertex="1" parent="-LTJIv0S8f1JqJ6JOklE-147">
          <mxGeometry x="60" width="60" height="40" as="geometry">
            <mxRectangle width="60" height="40" as="alternateBounds" />
          </mxGeometry>
        </mxCell>
        <mxCell id="-LTJIv0S8f1JqJ6JOklE-150" value="" style="shape=partialRectangle;html=1;whiteSpace=wrap;connectable=0;strokeColor=inherit;overflow=hidden;fillColor=none;top=0;left=0;bottom=0;right=0;pointerEvents=1;" vertex="1" parent="-LTJIv0S8f1JqJ6JOklE-147">
          <mxGeometry x="120" width="60" height="40" as="geometry">
            <mxRectangle width="60" height="40" as="alternateBounds" />
          </mxGeometry>
        </mxCell>
        <mxCell id="-LTJIv0S8f1JqJ6JOklE-151" value="" style="shape=partialRectangle;html=1;whiteSpace=wrap;connectable=0;strokeColor=inherit;overflow=hidden;fillColor=none;top=0;left=0;bottom=0;right=0;pointerEvents=1;" vertex="1" parent="-LTJIv0S8f1JqJ6JOklE-147">
          <mxGeometry x="180" width="60" height="40" as="geometry">
            <mxRectangle width="60" height="40" as="alternateBounds" />
          </mxGeometry>
        </mxCell>
        <mxCell id="-LTJIv0S8f1JqJ6JOklE-135" value="" style="shape=table;startSize=0;container=1;collapsible=0;childLayout=tableLayout;" vertex="1" parent="1">
          <mxGeometry x="1040" y="478" width="240" height="40" as="geometry" />
        </mxCell>
        <mxCell id="-LTJIv0S8f1JqJ6JOklE-136" value="" style="shape=tableRow;horizontal=0;startSize=0;swimlaneHead=0;swimlaneBody=0;strokeColor=inherit;top=0;left=0;bottom=0;right=0;collapsible=0;dropTarget=0;fillColor=none;points=[[0,0.5],[1,0.5]];portConstraint=eastwest;" vertex="1" parent="-LTJIv0S8f1JqJ6JOklE-135">
          <mxGeometry width="240" height="40" as="geometry" />
        </mxCell>
        <mxCell id="-LTJIv0S8f1JqJ6JOklE-137" value="" style="shape=partialRectangle;html=1;whiteSpace=wrap;connectable=0;strokeColor=inherit;overflow=hidden;fillColor=none;top=0;left=0;bottom=0;right=0;pointerEvents=1;" vertex="1" parent="-LTJIv0S8f1JqJ6JOklE-136">
          <mxGeometry width="60" height="40" as="geometry">
            <mxRectangle width="60" height="40" as="alternateBounds" />
          </mxGeometry>
        </mxCell>
        <mxCell id="-LTJIv0S8f1JqJ6JOklE-138" value="" style="shape=partialRectangle;html=1;whiteSpace=wrap;connectable=0;strokeColor=inherit;overflow=hidden;fillColor=none;top=0;left=0;bottom=0;right=0;pointerEvents=1;" vertex="1" parent="-LTJIv0S8f1JqJ6JOklE-136">
          <mxGeometry x="60" width="60" height="40" as="geometry">
            <mxRectangle width="60" height="40" as="alternateBounds" />
          </mxGeometry>
        </mxCell>
        <mxCell id="-LTJIv0S8f1JqJ6JOklE-139" value="" style="shape=partialRectangle;html=1;whiteSpace=wrap;connectable=0;strokeColor=inherit;overflow=hidden;fillColor=none;top=0;left=0;bottom=0;right=0;pointerEvents=1;" vertex="1" parent="-LTJIv0S8f1JqJ6JOklE-136">
          <mxGeometry x="120" width="60" height="40" as="geometry">
            <mxRectangle width="60" height="40" as="alternateBounds" />
          </mxGeometry>
        </mxCell>
        <mxCell id="-LTJIv0S8f1JqJ6JOklE-140" value="" style="shape=partialRectangle;html=1;whiteSpace=wrap;connectable=0;strokeColor=inherit;overflow=hidden;fillColor=none;top=0;left=0;bottom=0;right=0;pointerEvents=1;" vertex="1" parent="-LTJIv0S8f1JqJ6JOklE-136">
          <mxGeometry x="180" width="60" height="40" as="geometry">
            <mxRectangle width="60" height="40" as="alternateBounds" />
          </mxGeometry>
        </mxCell>
        <mxCell id="3a17f1ce550125da-2" value="UPACK" style="whiteSpace=wrap;html=1;shadow=1;fontSize=18;fillColor=#f5f5f5;strokeColor=#666666;points=[[0,0,0,0,0],[0,0.25,0,0,0],[0,0.5,0,0,0],[0,0.75,0,0,0],[0,1,0,0,0],[0.25,0,0,0,0],[0.25,1,0,0,0],[0.5,0,0,0,0],[0.5,1,0,0,0],[0.75,0,0,0,0],[0.75,1,0,0,0],[1,0,0,0,0],[1,0.16,0,0,0],[1,0.37,0,0,0],[1,0.63,0,0,0],[1,0.84,0,0,0],[1,1,0,0,0]];" parent="1" vertex="1">
          <mxGeometry x="787" y="454" width="170" height="276" as="geometry" />
        </mxCell>
        <mxCell id="-LTJIv0S8f1JqJ6JOklE-1" value="" style="shape=table;childLayout=tableLayout;startSize=0;fillColor=none;collapsible=0;recursiveResize=0;expand=0;" vertex="1" parent="1">
          <mxGeometry x="520" y="454" width="180" height="276" as="geometry" />
        </mxCell>
        <mxCell id="-LTJIv0S8f1JqJ6JOklE-2" value="" style="shape=tableRow;horizontal=0;swimlaneHead=0;swimlaneBody=0;top=0;left=0;strokeColor=inherit;bottom=0;right=0;dropTarget=0;fontStyle=0;fillColor=none;points=[[0,0.5],[1,0.5]];portConstraint=eastwest;startSize=0;collapsible=0;recursiveResize=0;expand=0;" vertex="1" parent="-LTJIv0S8f1JqJ6JOklE-1">
          <mxGeometry width="180" height="69" as="geometry" />
        </mxCell>
        <mxCell id="-LTJIv0S8f1JqJ6JOklE-3" value="" style="swimlane;swimlaneHead=0;swimlaneBody=0;fontStyle=0;strokeColor=inherit;connectable=0;fillColor=none;startSize=0;collapsible=0;recursiveResize=0;expand=0;" vertex="1" parent="-LTJIv0S8f1JqJ6JOklE-2">
          <mxGeometry width="45" height="69" as="geometry">
            <mxRectangle width="45" height="69" as="alternateBounds" />
          </mxGeometry>
        </mxCell>
        <mxCell id="-LTJIv0S8f1JqJ6JOklE-4" value="" style="swimlane;swimlaneHead=0;swimlaneBody=0;fontStyle=0;strokeColor=inherit;connectable=0;fillColor=none;startSize=0;collapsible=0;recursiveResize=0;expand=0;" vertex="1" parent="-LTJIv0S8f1JqJ6JOklE-2">
          <mxGeometry x="45" width="45" height="69" as="geometry">
            <mxRectangle width="45" height="69" as="alternateBounds" />
          </mxGeometry>
        </mxCell>
        <mxCell id="-LTJIv0S8f1JqJ6JOklE-5" value="" style="swimlane;swimlaneHead=0;swimlaneBody=0;fontStyle=0;strokeColor=inherit;connectable=0;fillColor=none;startSize=0;collapsible=0;recursiveResize=0;expand=0;" vertex="1" parent="-LTJIv0S8f1JqJ6JOklE-2">
          <mxGeometry x="90" width="45" height="69" as="geometry">
            <mxRectangle width="45" height="69" as="alternateBounds" />
          </mxGeometry>
        </mxCell>
        <mxCell id="-LTJIv0S8f1JqJ6JOklE-6" value="" style="swimlane;swimlaneHead=0;swimlaneBody=0;fontStyle=0;strokeColor=inherit;connectable=0;fillColor=none;startSize=0;collapsible=0;recursiveResize=0;expand=0;" vertex="1" parent="-LTJIv0S8f1JqJ6JOklE-2">
          <mxGeometry x="135" width="45" height="69" as="geometry">
            <mxRectangle width="45" height="69" as="alternateBounds" />
          </mxGeometry>
        </mxCell>
        <mxCell id="-LTJIv0S8f1JqJ6JOklE-7" value="" style="shape=tableRow;horizontal=0;swimlaneHead=0;swimlaneBody=0;top=0;left=0;strokeColor=inherit;bottom=0;right=0;dropTarget=0;fontStyle=0;fillColor=none;points=[[0,0.5],[1,0.5]];portConstraint=eastwest;startSize=0;collapsible=0;recursiveResize=0;expand=0;" vertex="1" parent="-LTJIv0S8f1JqJ6JOklE-1">
          <mxGeometry y="69" width="180" height="69" as="geometry" />
        </mxCell>
        <mxCell id="-LTJIv0S8f1JqJ6JOklE-8" value="" style="swimlane;swimlaneHead=0;swimlaneBody=0;fontStyle=0;connectable=0;strokeColor=inherit;fillColor=none;startSize=0;collapsible=0;recursiveResize=0;expand=0;" vertex="1" parent="-LTJIv0S8f1JqJ6JOklE-7">
          <mxGeometry width="45" height="69" as="geometry">
            <mxRectangle width="45" height="69" as="alternateBounds" />
          </mxGeometry>
        </mxCell>
        <mxCell id="-LTJIv0S8f1JqJ6JOklE-9" value="" style="swimlane;swimlaneHead=0;swimlaneBody=0;fontStyle=0;connectable=0;strokeColor=inherit;fillColor=none;startSize=0;collapsible=0;recursiveResize=0;expand=0;" vertex="1" parent="-LTJIv0S8f1JqJ6JOklE-7">
          <mxGeometry x="45" width="45" height="69" as="geometry">
            <mxRectangle width="45" height="69" as="alternateBounds" />
          </mxGeometry>
        </mxCell>
        <mxCell id="-LTJIv0S8f1JqJ6JOklE-10" value="" style="swimlane;swimlaneHead=0;swimlaneBody=0;fontStyle=0;connectable=0;strokeColor=inherit;fillColor=none;startSize=0;collapsible=0;recursiveResize=0;expand=0;" vertex="1" parent="-LTJIv0S8f1JqJ6JOklE-7">
          <mxGeometry x="90" width="45" height="69" as="geometry">
            <mxRectangle width="45" height="69" as="alternateBounds" />
          </mxGeometry>
        </mxCell>
        <mxCell id="-LTJIv0S8f1JqJ6JOklE-11" value="" style="swimlane;swimlaneHead=0;swimlaneBody=0;fontStyle=0;connectable=0;strokeColor=inherit;fillColor=none;startSize=0;collapsible=0;recursiveResize=0;expand=0;" vertex="1" parent="-LTJIv0S8f1JqJ6JOklE-7">
          <mxGeometry x="135" width="45" height="69" as="geometry">
            <mxRectangle width="45" height="69" as="alternateBounds" />
          </mxGeometry>
        </mxCell>
        <mxCell id="-LTJIv0S8f1JqJ6JOklE-12" value="" style="shape=tableRow;horizontal=0;swimlaneHead=0;swimlaneBody=0;top=0;left=0;strokeColor=inherit;bottom=0;right=0;dropTarget=0;fontStyle=0;fillColor=none;points=[[0,0.5],[1,0.5]];portConstraint=eastwest;startSize=0;collapsible=0;recursiveResize=0;expand=0;" vertex="1" parent="-LTJIv0S8f1JqJ6JOklE-1">
          <mxGeometry y="138" width="180" height="69" as="geometry" />
        </mxCell>
        <mxCell id="-LTJIv0S8f1JqJ6JOklE-13" value="" style="swimlane;swimlaneHead=0;swimlaneBody=0;fontStyle=0;connectable=0;strokeColor=inherit;fillColor=none;startSize=0;collapsible=0;recursiveResize=0;expand=0;" vertex="1" parent="-LTJIv0S8f1JqJ6JOklE-12">
          <mxGeometry width="45" height="69" as="geometry">
            <mxRectangle width="45" height="69" as="alternateBounds" />
          </mxGeometry>
        </mxCell>
        <mxCell id="-LTJIv0S8f1JqJ6JOklE-14" value="" style="swimlane;swimlaneHead=0;swimlaneBody=0;fontStyle=0;connectable=0;strokeColor=inherit;fillColor=none;startSize=0;collapsible=0;recursiveResize=0;expand=0;" vertex="1" parent="-LTJIv0S8f1JqJ6JOklE-12">
          <mxGeometry x="45" width="45" height="69" as="geometry">
            <mxRectangle width="45" height="69" as="alternateBounds" />
          </mxGeometry>
        </mxCell>
        <mxCell id="-LTJIv0S8f1JqJ6JOklE-15" value="" style="swimlane;swimlaneHead=0;swimlaneBody=0;fontStyle=0;connectable=0;strokeColor=inherit;fillColor=none;startSize=0;collapsible=0;recursiveResize=0;expand=0;" vertex="1" parent="-LTJIv0S8f1JqJ6JOklE-12">
          <mxGeometry x="90" width="45" height="69" as="geometry">
            <mxRectangle width="45" height="69" as="alternateBounds" />
          </mxGeometry>
        </mxCell>
        <mxCell id="-LTJIv0S8f1JqJ6JOklE-16" value="" style="swimlane;swimlaneHead=0;swimlaneBody=0;fontStyle=0;connectable=0;strokeColor=inherit;fillColor=none;startSize=0;collapsible=0;recursiveResize=0;expand=0;" vertex="1" parent="-LTJIv0S8f1JqJ6JOklE-12">
          <mxGeometry x="135" width="45" height="69" as="geometry">
            <mxRectangle width="45" height="69" as="alternateBounds" />
          </mxGeometry>
        </mxCell>
        <mxCell id="-LTJIv0S8f1JqJ6JOklE-17" value="" style="shape=tableRow;horizontal=0;swimlaneHead=0;swimlaneBody=0;top=0;left=0;strokeColor=inherit;bottom=0;right=0;dropTarget=0;fontStyle=0;fillColor=none;points=[[0,0.5],[1,0.5]];portConstraint=eastwest;startSize=0;collapsible=0;recursiveResize=0;expand=0;" vertex="1" parent="-LTJIv0S8f1JqJ6JOklE-1">
          <mxGeometry y="207" width="180" height="69" as="geometry" />
        </mxCell>
        <mxCell id="-LTJIv0S8f1JqJ6JOklE-18" value="" style="swimlane;swimlaneHead=0;swimlaneBody=0;fontStyle=0;connectable=0;strokeColor=inherit;fillColor=none;startSize=0;collapsible=0;recursiveResize=0;expand=0;" vertex="1" parent="-LTJIv0S8f1JqJ6JOklE-17">
          <mxGeometry width="45" height="69" as="geometry">
            <mxRectangle width="45" height="69" as="alternateBounds" />
          </mxGeometry>
        </mxCell>
        <mxCell id="-LTJIv0S8f1JqJ6JOklE-19" value="" style="swimlane;swimlaneHead=0;swimlaneBody=0;fontStyle=0;connectable=0;strokeColor=inherit;fillColor=none;startSize=0;collapsible=0;recursiveResize=0;expand=0;" vertex="1" parent="-LTJIv0S8f1JqJ6JOklE-17">
          <mxGeometry x="45" width="45" height="69" as="geometry">
            <mxRectangle width="45" height="69" as="alternateBounds" />
          </mxGeometry>
        </mxCell>
        <mxCell id="-LTJIv0S8f1JqJ6JOklE-20" value="" style="swimlane;swimlaneHead=0;swimlaneBody=0;fontStyle=0;connectable=0;strokeColor=inherit;fillColor=none;startSize=0;collapsible=0;recursiveResize=0;expand=0;" vertex="1" parent="-LTJIv0S8f1JqJ6JOklE-17">
          <mxGeometry x="90" width="45" height="69" as="geometry">
            <mxRectangle width="45" height="69" as="alternateBounds" />
          </mxGeometry>
        </mxCell>
        <mxCell id="-LTJIv0S8f1JqJ6JOklE-21" value="" style="swimlane;swimlaneHead=0;swimlaneBody=0;fontStyle=0;connectable=0;strokeColor=inherit;fillColor=none;startSize=0;collapsible=0;recursiveResize=0;expand=0;" vertex="1" parent="-LTJIv0S8f1JqJ6JOklE-17">
          <mxGeometry x="135" width="45" height="69" as="geometry">
            <mxRectangle width="45" height="69" as="alternateBounds" />
          </mxGeometry>
        </mxCell>
        <mxCell id="-LTJIv0S8f1JqJ6JOklE-23" value="&lt;font style=&quot;font-size: 24px;&quot;&gt;/&lt;/font&gt;" style="endArrow=classic;html=1;rounded=0;fontSize=12;startSize=8;endSize=8;curved=1;exitX=1;exitY=0.5;exitDx=0;exitDy=0;strokeWidth=3;" edge="1" parent="1" source="-LTJIv0S8f1JqJ6JOklE-1" target="3a17f1ce550125da-2">
          <mxGeometry width="50" height="50" relative="1" as="geometry">
            <mxPoint x="500" y="640" as="sourcePoint" />
            <mxPoint x="550" y="590" as="targetPoint" />
          </mxGeometry>
        </mxCell>
        <mxCell id="-LTJIv0S8f1JqJ6JOklE-24" value="64" style="text;strokeColor=none;fillColor=none;html=1;align=center;verticalAlign=middle;whiteSpace=wrap;rounded=0;fontSize=16;" vertex="1" parent="1">
          <mxGeometry x="700" y="560" width="60" height="30" as="geometry" />
        </mxCell>
        <mxCell id="-LTJIv0S8f1JqJ6JOklE-25" value="LSB" style="text;strokeColor=none;fillColor=none;html=1;align=center;verticalAlign=middle;whiteSpace=wrap;rounded=0;fontSize=12;" vertex="1" parent="1">
          <mxGeometry x="690" y="710" width="60" height="30" as="geometry" />
        </mxCell>
        <mxCell id="-LTJIv0S8f1JqJ6JOklE-26" value="MSB" style="text;strokeColor=none;fillColor=none;html=1;align=center;verticalAlign=middle;whiteSpace=wrap;rounded=0;fontSize=12;" vertex="1" parent="1">
          <mxGeometry x="690" y="444" width="60" height="30" as="geometry" />
        </mxCell>
        <mxCell id="-LTJIv0S8f1JqJ6JOklE-27" value="A0" style="text;html=1;align=center;verticalAlign=middle;resizable=0;points=[];autosize=1;strokeColor=none;fillColor=none;fontSize=16;fontColor=#FF0000;" vertex="1" parent="1">
          <mxGeometry x="654" y="681" width="40" height="30" as="geometry" />
        </mxCell>
        <mxCell id="-LTJIv0S8f1JqJ6JOklE-28" value="B0" style="text;html=1;align=center;verticalAlign=middle;resizable=0;points=[];autosize=1;strokeColor=none;fillColor=none;fontSize=16;fontColor=#007FFF;" vertex="1" parent="1">
          <mxGeometry x="654" y="611" width="40" height="30" as="geometry" />
        </mxCell>
        <mxCell id="-LTJIv0S8f1JqJ6JOklE-29" value="C0" style="text;html=1;align=center;verticalAlign=middle;resizable=0;points=[];autosize=1;strokeColor=none;fillColor=none;fontSize=16;fontColor=#00CC00;" vertex="1" parent="1">
          <mxGeometry x="654" y="551" width="40" height="30" as="geometry" />
        </mxCell>
        <mxCell id="-LTJIv0S8f1JqJ6JOklE-30" value="D0" style="text;html=1;align=center;verticalAlign=middle;resizable=0;points=[];autosize=1;strokeColor=none;fillColor=none;fontSize=16;fontColor=#FF8000;" vertex="1" parent="1">
          <mxGeometry x="654" y="471" width="40" height="30" as="geometry" />
        </mxCell>
        <mxCell id="-LTJIv0S8f1JqJ6JOklE-31" value="A1" style="text;html=1;align=center;verticalAlign=middle;resizable=0;points=[];autosize=1;strokeColor=none;fillColor=none;fontSize=16;fontColor=#FF0000;" vertex="1" parent="1">
          <mxGeometry x="614" y="681" width="40" height="30" as="geometry" />
        </mxCell>
        <mxCell id="-LTJIv0S8f1JqJ6JOklE-33" value="B1" style="text;html=1;align=center;verticalAlign=middle;resizable=0;points=[];autosize=1;strokeColor=none;fillColor=none;fontSize=16;fontColor=#007FFF;" vertex="1" parent="1">
          <mxGeometry x="614" y="611" width="40" height="30" as="geometry" />
        </mxCell>
        <mxCell id="-LTJIv0S8f1JqJ6JOklE-34" value="C1" style="text;html=1;align=center;verticalAlign=middle;resizable=0;points=[];autosize=1;strokeColor=none;fillColor=none;fontSize=16;fontColor=#00CC00;" vertex="1" parent="1">
          <mxGeometry x="614" y="551" width="40" height="30" as="geometry" />
        </mxCell>
        <mxCell id="-LTJIv0S8f1JqJ6JOklE-35" value="D1" style="text;html=1;align=center;verticalAlign=middle;resizable=0;points=[];autosize=1;strokeColor=none;fillColor=none;fontSize=16;fontColor=#FF8000;" vertex="1" parent="1">
          <mxGeometry x="614" y="471" width="40" height="30" as="geometry" />
        </mxCell>
        <mxCell id="-LTJIv0S8f1JqJ6JOklE-36" value="A2" style="text;html=1;align=center;verticalAlign=middle;resizable=0;points=[];autosize=1;strokeColor=none;fillColor=none;fontSize=16;fontColor=#FF0000;" vertex="1" parent="1">
          <mxGeometry x="564" y="681" width="40" height="30" as="geometry" />
        </mxCell>
        <mxCell id="-LTJIv0S8f1JqJ6JOklE-37" value="B2" style="text;html=1;align=center;verticalAlign=middle;resizable=0;points=[];autosize=1;strokeColor=none;fillColor=none;fontSize=16;fontColor=#007FFF;" vertex="1" parent="1">
          <mxGeometry x="564" y="611" width="40" height="30" as="geometry" />
        </mxCell>
        <mxCell id="-LTJIv0S8f1JqJ6JOklE-38" value="C2" style="text;html=1;align=center;verticalAlign=middle;resizable=0;points=[];autosize=1;strokeColor=none;fillColor=none;fontSize=16;fontColor=#00CC00;" vertex="1" parent="1">
          <mxGeometry x="564" y="551" width="40" height="30" as="geometry" />
        </mxCell>
        <mxCell id="-LTJIv0S8f1JqJ6JOklE-39" value="D2" style="text;html=1;align=center;verticalAlign=middle;resizable=0;points=[];autosize=1;strokeColor=none;fillColor=none;fontSize=16;fontColor=#FF8000;" vertex="1" parent="1">
          <mxGeometry x="564" y="471" width="40" height="30" as="geometry" />
        </mxCell>
        <mxCell id="-LTJIv0S8f1JqJ6JOklE-40" value="A3" style="text;html=1;align=center;verticalAlign=middle;resizable=0;points=[];autosize=1;strokeColor=none;fillColor=none;fontSize=16;fontColor=#FF0000;" vertex="1" parent="1">
          <mxGeometry x="524" y="681" width="40" height="30" as="geometry" />
        </mxCell>
        <mxCell id="-LTJIv0S8f1JqJ6JOklE-41" value="B3" style="text;html=1;align=center;verticalAlign=middle;resizable=0;points=[];autosize=1;strokeColor=none;fillColor=none;fontSize=16;fontColor=#007FFF;" vertex="1" parent="1">
          <mxGeometry x="524" y="611" width="40" height="30" as="geometry" />
        </mxCell>
        <mxCell id="-LTJIv0S8f1JqJ6JOklE-42" value="C3" style="text;html=1;align=center;verticalAlign=middle;resizable=0;points=[];autosize=1;strokeColor=none;fillColor=none;fontSize=16;fontColor=#00CC00;" vertex="1" parent="1">
          <mxGeometry x="524" y="551" width="40" height="30" as="geometry" />
        </mxCell>
        <mxCell id="-LTJIv0S8f1JqJ6JOklE-43" value="D3" style="text;html=1;align=center;verticalAlign=middle;resizable=0;points=[];autosize=1;strokeColor=none;fillColor=none;fontSize=16;fontColor=#FF8000;" vertex="1" parent="1">
          <mxGeometry x="524" y="471" width="40" height="30" as="geometry" />
        </mxCell>
        <mxCell id="-LTJIv0S8f1JqJ6JOklE-88" value="" style="endArrow=classic;html=1;rounded=0;fontSize=12;startSize=8;endSize=8;curved=1;exitX=1;exitY=0.16;exitDx=0;exitDy=0;exitPerimeter=0;entryX=0;entryY=0.5;entryDx=0;entryDy=0;" edge="1" parent="1" source="3a17f1ce550125da-2" target="-LTJIv0S8f1JqJ6JOklE-136">
          <mxGeometry width="50" height="50" relative="1" as="geometry">
            <mxPoint x="1010" y="620" as="sourcePoint" />
            <mxPoint x="1039.7600000000002" y="477.63200000000006" as="targetPoint" />
          </mxGeometry>
        </mxCell>
        <mxCell id="-LTJIv0S8f1JqJ6JOklE-93" value="/" style="edgeLabel;html=1;align=center;verticalAlign=middle;resizable=0;points=[];fontSize=12;" vertex="1" connectable="0" parent="-LTJIv0S8f1JqJ6JOklE-88">
          <mxGeometry x="-0.0358" y="-2" relative="1" as="geometry">
            <mxPoint as="offset" />
          </mxGeometry>
        </mxCell>
        <mxCell id="-LTJIv0S8f1JqJ6JOklE-89" value="" style="endArrow=classic;html=1;rounded=0;fontSize=12;startSize=8;endSize=8;curved=1;exitX=1;exitY=0.37;exitDx=0;exitDy=0;exitPerimeter=0;entryX=0;entryY=0.5;entryDx=0;entryDy=0;" edge="1" parent="1" source="3a17f1ce550125da-2" target="-LTJIv0S8f1JqJ6JOklE-147">
          <mxGeometry width="50" height="50" relative="1" as="geometry">
            <mxPoint x="1010" y="600" as="sourcePoint" />
            <mxPoint x="1039.2800000000002" y="553.8599999999999" as="targetPoint" />
          </mxGeometry>
        </mxCell>
        <mxCell id="-LTJIv0S8f1JqJ6JOklE-94" value="/" style="edgeLabel;html=1;align=center;verticalAlign=middle;resizable=0;points=[];fontSize=12;" vertex="1" connectable="0" parent="-LTJIv0S8f1JqJ6JOklE-89">
          <mxGeometry x="-0.0055" relative="1" as="geometry">
            <mxPoint as="offset" />
          </mxGeometry>
        </mxCell>
        <mxCell id="-LTJIv0S8f1JqJ6JOklE-90" value="" style="endArrow=classic;html=1;rounded=0;fontSize=12;startSize=8;endSize=8;curved=1;exitX=1;exitY=0.63;exitDx=0;exitDy=0;exitPerimeter=0;entryX=0;entryY=0.5;entryDx=0;entryDy=0;" edge="1" parent="1" source="3a17f1ce550125da-2" target="-LTJIv0S8f1JqJ6JOklE-153">
          <mxGeometry width="50" height="50" relative="1" as="geometry">
            <mxPoint x="1010" y="700" as="sourcePoint" />
            <mxPoint x="1038.3200000000002" y="630.02" as="targetPoint" />
          </mxGeometry>
        </mxCell>
        <mxCell id="-LTJIv0S8f1JqJ6JOklE-95" value="/" style="edgeLabel;html=1;align=center;verticalAlign=middle;resizable=0;points=[];fontSize=12;" vertex="1" connectable="0" parent="-LTJIv0S8f1JqJ6JOklE-90">
          <mxGeometry x="-0.07" y="3" relative="1" as="geometry">
            <mxPoint as="offset" />
          </mxGeometry>
        </mxCell>
        <mxCell id="-LTJIv0S8f1JqJ6JOklE-91" value="" style="endArrow=classic;html=1;rounded=0;fontSize=12;startSize=8;endSize=8;curved=1;exitX=1;exitY=0.84;exitDx=0;exitDy=0;exitPerimeter=0;entryX=0;entryY=0.5;entryDx=0;entryDy=0;" edge="1" parent="1" source="3a17f1ce550125da-2" target="-LTJIv0S8f1JqJ6JOklE-159">
          <mxGeometry width="50" height="50" relative="1" as="geometry">
            <mxPoint x="1010" y="700" as="sourcePoint" />
            <mxPoint x="1038.08" y="706.1599999999999" as="targetPoint" />
          </mxGeometry>
        </mxCell>
        <mxCell id="-LTJIv0S8f1JqJ6JOklE-96" value="/" style="edgeLabel;html=1;align=center;verticalAlign=middle;resizable=0;points=[];fontSize=12;" vertex="1" connectable="0" parent="-LTJIv0S8f1JqJ6JOklE-91">
          <mxGeometry x="0.0123" y="-1" relative="1" as="geometry">
            <mxPoint as="offset" />
          </mxGeometry>
        </mxCell>
        <mxCell id="-LTJIv0S8f1JqJ6JOklE-97" value="16" style="text;strokeColor=none;fillColor=none;html=1;align=center;verticalAlign=middle;whiteSpace=wrap;rounded=0;fontSize=16;" vertex="1" parent="1">
          <mxGeometry x="957" y="471" width="60" height="30" as="geometry" />
        </mxCell>
        <mxCell id="-LTJIv0S8f1JqJ6JOklE-98" value="16" style="text;strokeColor=none;fillColor=none;html=1;align=center;verticalAlign=middle;whiteSpace=wrap;rounded=0;fontSize=16;" vertex="1" parent="1">
          <mxGeometry x="957" y="530" width="60" height="30" as="geometry" />
        </mxCell>
        <mxCell id="-LTJIv0S8f1JqJ6JOklE-99" value="16" style="text;strokeColor=none;fillColor=none;html=1;align=center;verticalAlign=middle;whiteSpace=wrap;rounded=0;fontSize=16;" vertex="1" parent="1">
          <mxGeometry x="957" y="596" width="60" height="30" as="geometry" />
        </mxCell>
        <mxCell id="-LTJIv0S8f1JqJ6JOklE-100" value="16" style="text;strokeColor=none;fillColor=none;html=1;align=center;verticalAlign=middle;whiteSpace=wrap;rounded=0;fontSize=16;" vertex="1" parent="1">
          <mxGeometry x="957" y="660" width="60" height="30" as="geometry" />
        </mxCell>
        <mxCell id="-LTJIv0S8f1JqJ6JOklE-101" value="A0" style="text;html=1;align=center;verticalAlign=middle;resizable=0;points=[];autosize=1;strokeColor=none;fillColor=none;fontSize=16;fontColor=#FF0000;" vertex="1" parent="1">
          <mxGeometry x="1051" y="484" width="40" height="30" as="geometry" />
        </mxCell>
        <mxCell id="-LTJIv0S8f1JqJ6JOklE-103" value="A1" style="text;html=1;align=center;verticalAlign=middle;resizable=0;points=[];autosize=1;strokeColor=none;fillColor=none;fontSize=16;fontColor=#FF0000;" vertex="1" parent="1">
          <mxGeometry x="1111" y="484" width="40" height="30" as="geometry" />
        </mxCell>
        <mxCell id="-LTJIv0S8f1JqJ6JOklE-105" value="A2" style="text;html=1;align=center;verticalAlign=middle;resizable=0;points=[];autosize=1;strokeColor=none;fillColor=none;fontSize=16;fontColor=#FF0000;" vertex="1" parent="1">
          <mxGeometry x="1168" y="482" width="40" height="30" as="geometry" />
        </mxCell>
        <mxCell id="-LTJIv0S8f1JqJ6JOklE-107" value="A3" style="text;html=1;align=center;verticalAlign=middle;resizable=0;points=[];autosize=1;strokeColor=none;fillColor=none;fontSize=16;fontColor=#FF0000;" vertex="1" parent="1">
          <mxGeometry x="1229" y="482" width="40" height="30" as="geometry" />
        </mxCell>
        <mxCell id="-LTJIv0S8f1JqJ6JOklE-109" value="B0" style="text;html=1;align=center;verticalAlign=middle;resizable=0;points=[];autosize=1;strokeColor=none;fillColor=none;fontSize=16;fontColor=#007FFF;" vertex="1" parent="1">
          <mxGeometry x="1051" y="541" width="40" height="30" as="geometry" />
        </mxCell>
        <mxCell id="-LTJIv0S8f1JqJ6JOklE-110" value="B1" style="text;html=1;align=center;verticalAlign=middle;resizable=0;points=[];autosize=1;strokeColor=none;fillColor=none;fontSize=16;fontColor=#007FFF;" vertex="1" parent="1">
          <mxGeometry x="1110" y="541" width="40" height="30" as="geometry" />
        </mxCell>
        <mxCell id="-LTJIv0S8f1JqJ6JOklE-111" value="B2" style="text;html=1;align=center;verticalAlign=middle;resizable=0;points=[];autosize=1;strokeColor=none;fillColor=none;fontSize=16;fontColor=#007FFF;" vertex="1" parent="1">
          <mxGeometry x="1168" y="541" width="40" height="30" as="geometry" />
        </mxCell>
        <mxCell id="-LTJIv0S8f1JqJ6JOklE-112" value="B3" style="text;html=1;align=center;verticalAlign=middle;resizable=0;points=[];autosize=1;strokeColor=none;fillColor=none;fontSize=16;fontColor=#007FFF;" vertex="1" parent="1">
          <mxGeometry x="1229" y="541" width="40" height="30" as="geometry" />
        </mxCell>
        <mxCell id="-LTJIv0S8f1JqJ6JOklE-117" value="C0" style="text;html=1;align=center;verticalAlign=middle;resizable=0;points=[];autosize=1;strokeColor=none;fillColor=none;fontSize=16;fontColor=#00CC00;" vertex="1" parent="1">
          <mxGeometry x="1051" y="611" width="40" height="30" as="geometry" />
        </mxCell>
        <mxCell id="-LTJIv0S8f1JqJ6JOklE-118" value="C1" style="text;html=1;align=center;verticalAlign=middle;resizable=0;points=[];autosize=1;strokeColor=none;fillColor=none;fontSize=16;fontColor=#00CC00;" vertex="1" parent="1">
          <mxGeometry x="1110" y="612" width="40" height="30" as="geometry" />
        </mxCell>
        <mxCell id="-LTJIv0S8f1JqJ6JOklE-119" value="C2" style="text;html=1;align=center;verticalAlign=middle;resizable=0;points=[];autosize=1;strokeColor=none;fillColor=none;fontSize=16;fontColor=#00CC00;" vertex="1" parent="1">
          <mxGeometry x="1168" y="612" width="40" height="30" as="geometry" />
        </mxCell>
        <mxCell id="-LTJIv0S8f1JqJ6JOklE-120" value="C3" style="text;html=1;align=center;verticalAlign=middle;resizable=0;points=[];autosize=1;strokeColor=none;fillColor=none;fontSize=16;fontColor=#00CC00;" vertex="1" parent="1">
          <mxGeometry x="1229" y="611" width="40" height="30" as="geometry" />
        </mxCell>
        <mxCell id="-LTJIv0S8f1JqJ6JOklE-125" value="D0" style="text;html=1;align=center;verticalAlign=middle;resizable=0;points=[];autosize=1;strokeColor=none;fillColor=none;fontSize=16;fontColor=#FF8000;" vertex="1" parent="1">
          <mxGeometry x="1051" y="671" width="40" height="30" as="geometry" />
        </mxCell>
        <mxCell id="-LTJIv0S8f1JqJ6JOklE-126" value="D1" style="text;html=1;align=center;verticalAlign=middle;resizable=0;points=[];autosize=1;strokeColor=none;fillColor=none;fontSize=16;fontColor=#FF8000;" vertex="1" parent="1">
          <mxGeometry x="1110" y="671" width="40" height="30" as="geometry" />
        </mxCell>
        <mxCell id="-LTJIv0S8f1JqJ6JOklE-127" value="D2" style="text;html=1;align=center;verticalAlign=middle;resizable=0;points=[];autosize=1;strokeColor=none;fillColor=none;fontSize=16;fontColor=#FF8000;" vertex="1" parent="1">
          <mxGeometry x="1168" y="671" width="40" height="30" as="geometry" />
        </mxCell>
        <mxCell id="-LTJIv0S8f1JqJ6JOklE-128" value="D3" style="text;html=1;align=center;verticalAlign=middle;resizable=0;points=[];autosize=1;strokeColor=none;fillColor=none;fontSize=16;fontColor=#FF8000;" vertex="1" parent="1">
          <mxGeometry x="1229" y="671" width="40" height="30" as="geometry" />
        </mxCell>
        <mxCell id="-LTJIv0S8f1JqJ6JOklE-164" value="" style="endArrow=classic;html=1;rounded=0;fontSize=12;startSize=8;endSize=8;curved=1;entryX=-0.004;entryY=0.99;entryDx=0;entryDy=0;entryPerimeter=0;" edge="1" parent="1" source="-LTJIv0S8f1JqJ6JOklE-165" target="-LTJIv0S8f1JqJ6JOklE-7">
          <mxGeometry width="50" height="50" relative="1" as="geometry">
            <mxPoint x="360" y="600" as="sourcePoint" />
            <mxPoint x="660" y="680" as="targetPoint" />
          </mxGeometry>
        </mxCell>
        <mxCell id="-LTJIv0S8f1JqJ6JOklE-166" value="/" style="edgeLabel;html=1;align=center;verticalAlign=middle;resizable=0;points=[];fontSize=12;" vertex="1" connectable="0" parent="-LTJIv0S8f1JqJ6JOklE-164">
          <mxGeometry x="-0.1489" y="-1" relative="1" as="geometry">
            <mxPoint as="offset" />
          </mxGeometry>
        </mxCell>
        <mxCell id="-LTJIv0S8f1JqJ6JOklE-165" value="DMA" style="rounded=0;whiteSpace=wrap;html=1;" vertex="1" parent="1">
          <mxGeometry x="320" y="509" width="110" height="166" as="geometry" />
        </mxCell>
        <mxCell id="-LTJIv0S8f1JqJ6JOklE-167" value="64" style="text;strokeColor=none;fillColor=none;html=1;align=center;verticalAlign=middle;whiteSpace=wrap;rounded=0;fontSize=16;" vertex="1" parent="1">
          <mxGeometry x="430" y="566" width="60" height="30" as="geometry" />
        </mxCell>
        <mxCell id="-LTJIv0S8f1JqJ6JOklE-169" value="&lt;font style=&quot;font-size: 16px;&quot;&gt;AXI_9361&lt;/font&gt;" style="rounded=0;whiteSpace=wrap;html=1;points=[[0,0,0,0,0],[0,0.16,0,0,0],[0,0.37,0,0,0],[0,0.64,0,0,0],[0,0.84,0,0,0],[0,1,0,0,0],[0.25,0,0,0,0],[0.25,1,0,0,0],[0.5,0,0,0,0],[0.5,1,0,0,0],[0.75,0,0,0,0],[0.75,1,0,0,0],[1,0,0,0,0],[1,0.25,0,0,0],[1,0.5,0,0,0],[1,0.75,0,0,0],[1,1,0,0,0]];" vertex="1" parent="1">
          <mxGeometry x="1510" y="454" width="120" height="276" as="geometry" />
        </mxCell>
        <mxCell id="-LTJIv0S8f1JqJ6JOklE-170" value="" style="endArrow=classic;html=1;rounded=0;fontSize=12;startSize=8;endSize=8;curved=1;entryX=-0.028;entryY=0.448;entryDx=0;entryDy=0;entryPerimeter=0;" edge="1" parent="1" target="-LTJIv0S8f1JqJ6JOklE-176">
          <mxGeometry width="50" height="50" relative="1" as="geometry">
            <mxPoint x="1280" y="627" as="sourcePoint" />
            <mxPoint x="1520" y="627" as="targetPoint" />
          </mxGeometry>
        </mxCell>
        <mxCell id="-LTJIv0S8f1JqJ6JOklE-171" value="" style="endArrow=classic;html=1;rounded=0;fontSize=12;startSize=8;endSize=8;curved=1;entryX=0;entryY=0.84;entryDx=0;entryDy=0;entryPerimeter=0;exitX=1;exitY=0.5;exitDx=0;exitDy=0;" edge="1" parent="1" source="-LTJIv0S8f1JqJ6JOklE-159" target="-LTJIv0S8f1JqJ6JOklE-169">
          <mxGeometry width="50" height="50" relative="1" as="geometry">
            <mxPoint x="1260" y="680" as="sourcePoint" />
            <mxPoint x="1310" y="630" as="targetPoint" />
          </mxGeometry>
        </mxCell>
        <mxCell id="-LTJIv0S8f1JqJ6JOklE-174" value="&lt;font color=&quot;#000000&quot;&gt;I0&lt;/font&gt;" style="text;html=1;align=center;verticalAlign=middle;resizable=0;points=[];autosize=1;strokeColor=none;fillColor=none;fontSize=16;fontColor=#FF0000;" vertex="1" parent="1">
          <mxGeometry x="1510" y="482.5" width="40" height="30" as="geometry" />
        </mxCell>
        <mxCell id="-LTJIv0S8f1JqJ6JOklE-175" value="&lt;font color=&quot;#000000&quot;&gt;Q0&lt;/font&gt;" style="text;html=1;align=center;verticalAlign=middle;resizable=0;points=[];autosize=1;strokeColor=none;fillColor=none;fontSize=16;fontColor=#FF0000;" vertex="1" parent="1">
          <mxGeometry x="1510" y="541.5" width="40" height="30" as="geometry" />
        </mxCell>
        <mxCell id="-LTJIv0S8f1JqJ6JOklE-176" value="&lt;font color=&quot;#000000&quot;&gt;I1&lt;/font&gt;" style="text;html=1;align=center;verticalAlign=middle;resizable=0;points=[];autosize=1;strokeColor=none;fillColor=none;fontSize=16;fontColor=#FF0000;" vertex="1" parent="1">
          <mxGeometry x="1510" y="611.5" width="40" height="30" as="geometry" />
        </mxCell>
        <mxCell id="-LTJIv0S8f1JqJ6JOklE-177" value="&lt;font color=&quot;#000000&quot;&gt;Q1&lt;/font&gt;" style="text;html=1;align=center;verticalAlign=middle;resizable=0;points=[];autosize=1;strokeColor=none;fillColor=none;fontSize=16;fontColor=#FF0000;" vertex="1" parent="1">
          <mxGeometry x="1510" y="671.5" width="40" height="30" as="geometry" />
        </mxCell>
        <mxCell id="-LTJIv0S8f1JqJ6JOklE-178" value="&lt;font style=&quot;font-size: 16px;&quot;&gt;Tx&lt;/font&gt;&lt;div style=&quot;font-size: 16px;&quot;&gt;&lt;font style=&quot;font-size: 16px;&quot;&gt;Interpolator&lt;/font&gt;&lt;/div&gt;" style="rounded=0;whiteSpace=wrap;html=1;" vertex="1" parent="1">
          <mxGeometry x="1320" y="468" width="140" height="119" as="geometry" />
        </mxCell>
        <mxCell id="-LTJIv0S8f1JqJ6JOklE-179" style="edgeStyle=none;curved=1;rounded=0;orthogonalLoop=1;jettySize=auto;html=1;exitX=0;exitY=0.5;exitDx=0;exitDy=0;fontSize=12;startSize=8;endSize=8;" edge="1" parent="1" source="-LTJIv0S8f1JqJ6JOklE-178" target="-LTJIv0S8f1JqJ6JOklE-178">
          <mxGeometry relative="1" as="geometry" />
        </mxCell>
        <mxCell id="-LTJIv0S8f1JqJ6JOklE-180" value="" style="endArrow=classic;html=1;rounded=0;fontSize=12;startSize=8;endSize=8;curved=1;exitX=1;exitY=0.5;exitDx=0;exitDy=0;entryX=0;entryY=0.25;entryDx=0;entryDy=0;" edge="1" parent="1" source="-LTJIv0S8f1JqJ6JOklE-136" target="-LTJIv0S8f1JqJ6JOklE-178">
          <mxGeometry width="50" height="50" relative="1" as="geometry">
            <mxPoint x="1300" y="600" as="sourcePoint" />
            <mxPoint x="1350" y="550" as="targetPoint" />
          </mxGeometry>
        </mxCell>
        <mxCell id="-LTJIv0S8f1JqJ6JOklE-181" value="" style="endArrow=classic;html=1;rounded=0;fontSize=12;startSize=8;endSize=8;curved=1;exitX=1;exitY=0.5;exitDx=0;exitDy=0;entryX=0.005;entryY=0.73;entryDx=0;entryDy=0;entryPerimeter=0;" edge="1" parent="1" source="-LTJIv0S8f1JqJ6JOklE-147" target="-LTJIv0S8f1JqJ6JOklE-178">
          <mxGeometry width="50" height="50" relative="1" as="geometry">
            <mxPoint x="1300" y="600" as="sourcePoint" />
            <mxPoint x="1350" y="550" as="targetPoint" />
          </mxGeometry>
        </mxCell>
        <mxCell id="-LTJIv0S8f1JqJ6JOklE-182" value="" style="endArrow=classic;html=1;rounded=0;fontSize=12;startSize=8;endSize=8;curved=1;entryX=-0.028;entryY=0.488;entryDx=0;entryDy=0;entryPerimeter=0;exitX=1;exitY=0.25;exitDx=0;exitDy=0;" edge="1" parent="1" source="-LTJIv0S8f1JqJ6JOklE-178" target="-LTJIv0S8f1JqJ6JOklE-174">
          <mxGeometry width="50" height="50" relative="1" as="geometry">
            <mxPoint x="1300" y="600" as="sourcePoint" />
            <mxPoint x="1350" y="550" as="targetPoint" />
          </mxGeometry>
        </mxCell>
        <mxCell id="-LTJIv0S8f1JqJ6JOklE-183" value="" style="endArrow=classic;html=1;rounded=0;fontSize=12;startSize=8;endSize=8;curved=1;entryX=0;entryY=0.509;entryDx=0;entryDy=0;entryPerimeter=0;exitX=1;exitY=0.75;exitDx=0;exitDy=0;" edge="1" parent="1" source="-LTJIv0S8f1JqJ6JOklE-178" target="-LTJIv0S8f1JqJ6JOklE-175">
          <mxGeometry width="50" height="50" relative="1" as="geometry">
            <mxPoint x="1300" y="600" as="sourcePoint" />
            <mxPoint x="1350" y="550" as="targetPoint" />
          </mxGeometry>
        </mxCell>
      </root>
    </mxGraphModel>
  </diagram>
  <diagram id="A3PQSTk8_x9moYHLOyJ3" name="Page-2">
    <mxGraphModel dx="1349" dy="540" grid="0" gridSize="10" guides="1" tooltips="1" connect="1" arrows="1" fold="1" page="0" pageScale="1" pageWidth="850" pageHeight="1100" math="0" shadow="0">
      <root>
        <mxCell id="0" />
        <mxCell id="1" parent="0" />
        <mxCell id="AyMYqNuPUEegRnhZJM69-19" value="" style="shape=table;startSize=0;container=1;collapsible=0;childLayout=tableLayout;" vertex="1" parent="1">
          <mxGeometry x="979" y="572" width="240" height="40" as="geometry" />
        </mxCell>
        <mxCell id="AyMYqNuPUEegRnhZJM69-20" value="" style="shape=tableRow;horizontal=0;startSize=0;swimlaneHead=0;swimlaneBody=0;strokeColor=inherit;top=0;left=0;bottom=0;right=0;collapsible=0;dropTarget=0;fillColor=none;points=[[0,0.5],[1,0.5]];portConstraint=eastwest;" vertex="1" parent="AyMYqNuPUEegRnhZJM69-19">
          <mxGeometry width="240" height="40" as="geometry" />
        </mxCell>
        <mxCell id="AyMYqNuPUEegRnhZJM69-21" value="" style="shape=partialRectangle;html=1;whiteSpace=wrap;connectable=0;strokeColor=inherit;overflow=hidden;fillColor=none;top=0;left=0;bottom=0;right=0;pointerEvents=1;" vertex="1" parent="AyMYqNuPUEegRnhZJM69-20">
          <mxGeometry width="60" height="40" as="geometry">
            <mxRectangle width="60" height="40" as="alternateBounds" />
          </mxGeometry>
        </mxCell>
        <mxCell id="AyMYqNuPUEegRnhZJM69-22" value="" style="shape=partialRectangle;html=1;whiteSpace=wrap;connectable=0;strokeColor=inherit;overflow=hidden;fillColor=none;top=0;left=0;bottom=0;right=0;pointerEvents=1;" vertex="1" parent="AyMYqNuPUEegRnhZJM69-20">
          <mxGeometry x="60" width="60" height="40" as="geometry">
            <mxRectangle width="60" height="40" as="alternateBounds" />
          </mxGeometry>
        </mxCell>
        <mxCell id="AyMYqNuPUEegRnhZJM69-23" value="" style="shape=partialRectangle;html=1;whiteSpace=wrap;connectable=0;strokeColor=inherit;overflow=hidden;fillColor=none;top=0;left=0;bottom=0;right=0;pointerEvents=1;" vertex="1" parent="AyMYqNuPUEegRnhZJM69-20">
          <mxGeometry x="120" width="60" height="40" as="geometry">
            <mxRectangle width="60" height="40" as="alternateBounds" />
          </mxGeometry>
        </mxCell>
        <mxCell id="AyMYqNuPUEegRnhZJM69-24" value="" style="shape=partialRectangle;html=1;whiteSpace=wrap;connectable=0;strokeColor=inherit;overflow=hidden;fillColor=none;top=0;left=0;bottom=0;right=0;pointerEvents=1;" vertex="1" parent="AyMYqNuPUEegRnhZJM69-20">
          <mxGeometry x="180" width="60" height="40" as="geometry">
            <mxRectangle width="60" height="40" as="alternateBounds" />
          </mxGeometry>
        </mxCell>
        <mxCell id="AyMYqNuPUEegRnhZJM69-26" value="" style="shape=table;childLayout=tableLayout;startSize=0;fillColor=none;collapsible=0;recursiveResize=0;expand=0;" vertex="1" parent="1">
          <mxGeometry x="520" y="454" width="180" height="276" as="geometry" />
        </mxCell>
        <mxCell id="AyMYqNuPUEegRnhZJM69-27" value="" style="shape=tableRow;horizontal=0;swimlaneHead=0;swimlaneBody=0;top=0;left=0;strokeColor=inherit;bottom=0;right=0;dropTarget=0;fontStyle=0;fillColor=none;points=[[0,0.5],[1,0.5]];portConstraint=eastwest;startSize=0;collapsible=0;recursiveResize=0;expand=0;" vertex="1" parent="AyMYqNuPUEegRnhZJM69-26">
          <mxGeometry width="180" height="69" as="geometry" />
        </mxCell>
        <mxCell id="AyMYqNuPUEegRnhZJM69-28" value="" style="swimlane;swimlaneHead=0;swimlaneBody=0;fontStyle=0;strokeColor=inherit;connectable=0;fillColor=none;startSize=0;collapsible=0;recursiveResize=0;expand=0;" vertex="1" parent="AyMYqNuPUEegRnhZJM69-27">
          <mxGeometry width="45" height="69" as="geometry">
            <mxRectangle width="45" height="69" as="alternateBounds" />
          </mxGeometry>
        </mxCell>
        <mxCell id="AyMYqNuPUEegRnhZJM69-29" value="" style="swimlane;swimlaneHead=0;swimlaneBody=0;fontStyle=0;strokeColor=inherit;connectable=0;fillColor=none;startSize=0;collapsible=0;recursiveResize=0;expand=0;" vertex="1" parent="AyMYqNuPUEegRnhZJM69-27">
          <mxGeometry x="45" width="45" height="69" as="geometry">
            <mxRectangle width="45" height="69" as="alternateBounds" />
          </mxGeometry>
        </mxCell>
        <mxCell id="AyMYqNuPUEegRnhZJM69-30" value="" style="swimlane;swimlaneHead=0;swimlaneBody=0;fontStyle=0;strokeColor=inherit;connectable=0;fillColor=none;startSize=0;collapsible=0;recursiveResize=0;expand=0;" vertex="1" parent="AyMYqNuPUEegRnhZJM69-27">
          <mxGeometry x="90" width="45" height="69" as="geometry">
            <mxRectangle width="45" height="69" as="alternateBounds" />
          </mxGeometry>
        </mxCell>
        <mxCell id="AyMYqNuPUEegRnhZJM69-31" value="" style="swimlane;swimlaneHead=0;swimlaneBody=0;fontStyle=0;strokeColor=inherit;connectable=0;fillColor=none;startSize=0;collapsible=0;recursiveResize=0;expand=0;" vertex="1" parent="AyMYqNuPUEegRnhZJM69-27">
          <mxGeometry x="135" width="45" height="69" as="geometry">
            <mxRectangle width="45" height="69" as="alternateBounds" />
          </mxGeometry>
        </mxCell>
        <mxCell id="AyMYqNuPUEegRnhZJM69-32" value="" style="shape=tableRow;horizontal=0;swimlaneHead=0;swimlaneBody=0;top=0;left=0;strokeColor=inherit;bottom=0;right=0;dropTarget=0;fontStyle=0;fillColor=none;points=[[0,0.5],[1,0.5]];portConstraint=eastwest;startSize=0;collapsible=0;recursiveResize=0;expand=0;" vertex="1" parent="AyMYqNuPUEegRnhZJM69-26">
          <mxGeometry y="69" width="180" height="69" as="geometry" />
        </mxCell>
        <mxCell id="AyMYqNuPUEegRnhZJM69-33" value="" style="swimlane;swimlaneHead=0;swimlaneBody=0;fontStyle=0;connectable=0;strokeColor=inherit;fillColor=none;startSize=0;collapsible=0;recursiveResize=0;expand=0;" vertex="1" parent="AyMYqNuPUEegRnhZJM69-32">
          <mxGeometry width="45" height="69" as="geometry">
            <mxRectangle width="45" height="69" as="alternateBounds" />
          </mxGeometry>
        </mxCell>
        <mxCell id="AyMYqNuPUEegRnhZJM69-34" value="" style="swimlane;swimlaneHead=0;swimlaneBody=0;fontStyle=0;connectable=0;strokeColor=inherit;fillColor=none;startSize=0;collapsible=0;recursiveResize=0;expand=0;" vertex="1" parent="AyMYqNuPUEegRnhZJM69-32">
          <mxGeometry x="45" width="45" height="69" as="geometry">
            <mxRectangle width="45" height="69" as="alternateBounds" />
          </mxGeometry>
        </mxCell>
        <mxCell id="AyMYqNuPUEegRnhZJM69-35" value="" style="swimlane;swimlaneHead=0;swimlaneBody=0;fontStyle=0;connectable=0;strokeColor=inherit;fillColor=none;startSize=0;collapsible=0;recursiveResize=0;expand=0;" vertex="1" parent="AyMYqNuPUEegRnhZJM69-32">
          <mxGeometry x="90" width="45" height="69" as="geometry">
            <mxRectangle width="45" height="69" as="alternateBounds" />
          </mxGeometry>
        </mxCell>
        <mxCell id="AyMYqNuPUEegRnhZJM69-36" value="" style="swimlane;swimlaneHead=0;swimlaneBody=0;fontStyle=0;connectable=0;strokeColor=inherit;fillColor=none;startSize=0;collapsible=0;recursiveResize=0;expand=0;" vertex="1" parent="AyMYqNuPUEegRnhZJM69-32">
          <mxGeometry x="135" width="45" height="69" as="geometry">
            <mxRectangle width="45" height="69" as="alternateBounds" />
          </mxGeometry>
        </mxCell>
        <mxCell id="AyMYqNuPUEegRnhZJM69-37" value="" style="shape=tableRow;horizontal=0;swimlaneHead=0;swimlaneBody=0;top=0;left=0;strokeColor=inherit;bottom=0;right=0;dropTarget=0;fontStyle=0;fillColor=none;points=[[0,0.5],[1,0.5]];portConstraint=eastwest;startSize=0;collapsible=0;recursiveResize=0;expand=0;" vertex="1" parent="AyMYqNuPUEegRnhZJM69-26">
          <mxGeometry y="138" width="180" height="69" as="geometry" />
        </mxCell>
        <mxCell id="AyMYqNuPUEegRnhZJM69-38" value="" style="swimlane;swimlaneHead=0;swimlaneBody=0;fontStyle=0;connectable=0;strokeColor=inherit;fillColor=none;startSize=0;collapsible=0;recursiveResize=0;expand=0;" vertex="1" parent="AyMYqNuPUEegRnhZJM69-37">
          <mxGeometry width="45" height="69" as="geometry">
            <mxRectangle width="45" height="69" as="alternateBounds" />
          </mxGeometry>
        </mxCell>
        <mxCell id="AyMYqNuPUEegRnhZJM69-39" value="" style="swimlane;swimlaneHead=0;swimlaneBody=0;fontStyle=0;connectable=0;strokeColor=inherit;fillColor=none;startSize=0;collapsible=0;recursiveResize=0;expand=0;" vertex="1" parent="AyMYqNuPUEegRnhZJM69-37">
          <mxGeometry x="45" width="45" height="69" as="geometry">
            <mxRectangle width="45" height="69" as="alternateBounds" />
          </mxGeometry>
        </mxCell>
        <mxCell id="AyMYqNuPUEegRnhZJM69-40" value="" style="swimlane;swimlaneHead=0;swimlaneBody=0;fontStyle=0;connectable=0;strokeColor=inherit;fillColor=none;startSize=0;collapsible=0;recursiveResize=0;expand=0;" vertex="1" parent="AyMYqNuPUEegRnhZJM69-37">
          <mxGeometry x="90" width="45" height="69" as="geometry">
            <mxRectangle width="45" height="69" as="alternateBounds" />
          </mxGeometry>
        </mxCell>
        <mxCell id="AyMYqNuPUEegRnhZJM69-41" value="" style="swimlane;swimlaneHead=0;swimlaneBody=0;fontStyle=0;connectable=0;strokeColor=inherit;fillColor=none;startSize=0;collapsible=0;recursiveResize=0;expand=0;" vertex="1" parent="AyMYqNuPUEegRnhZJM69-37">
          <mxGeometry x="135" width="45" height="69" as="geometry">
            <mxRectangle width="45" height="69" as="alternateBounds" />
          </mxGeometry>
        </mxCell>
        <mxCell id="AyMYqNuPUEegRnhZJM69-42" value="" style="shape=tableRow;horizontal=0;swimlaneHead=0;swimlaneBody=0;top=0;left=0;strokeColor=inherit;bottom=0;right=0;dropTarget=0;fontStyle=0;fillColor=none;points=[[0,0.5],[1,0.5]];portConstraint=eastwest;startSize=0;collapsible=0;recursiveResize=0;expand=0;" vertex="1" parent="AyMYqNuPUEegRnhZJM69-26">
          <mxGeometry y="207" width="180" height="69" as="geometry" />
        </mxCell>
        <mxCell id="AyMYqNuPUEegRnhZJM69-43" value="" style="swimlane;swimlaneHead=0;swimlaneBody=0;fontStyle=0;connectable=0;strokeColor=inherit;fillColor=none;startSize=0;collapsible=0;recursiveResize=0;expand=0;" vertex="1" parent="AyMYqNuPUEegRnhZJM69-42">
          <mxGeometry width="45" height="69" as="geometry">
            <mxRectangle width="45" height="69" as="alternateBounds" />
          </mxGeometry>
        </mxCell>
        <mxCell id="AyMYqNuPUEegRnhZJM69-44" value="" style="swimlane;swimlaneHead=0;swimlaneBody=0;fontStyle=0;connectable=0;strokeColor=inherit;fillColor=none;startSize=0;collapsible=0;recursiveResize=0;expand=0;" vertex="1" parent="AyMYqNuPUEegRnhZJM69-42">
          <mxGeometry x="45" width="45" height="69" as="geometry">
            <mxRectangle width="45" height="69" as="alternateBounds" />
          </mxGeometry>
        </mxCell>
        <mxCell id="AyMYqNuPUEegRnhZJM69-45" value="" style="swimlane;swimlaneHead=0;swimlaneBody=0;fontStyle=0;connectable=0;strokeColor=inherit;fillColor=none;startSize=0;collapsible=0;recursiveResize=0;expand=0;" vertex="1" parent="AyMYqNuPUEegRnhZJM69-42">
          <mxGeometry x="90" width="45" height="69" as="geometry">
            <mxRectangle width="45" height="69" as="alternateBounds" />
          </mxGeometry>
        </mxCell>
        <mxCell id="AyMYqNuPUEegRnhZJM69-46" value="" style="swimlane;swimlaneHead=0;swimlaneBody=0;fontStyle=0;connectable=0;strokeColor=inherit;fillColor=none;startSize=0;collapsible=0;recursiveResize=0;expand=0;" vertex="1" parent="AyMYqNuPUEegRnhZJM69-42">
          <mxGeometry x="135" width="45" height="69" as="geometry">
            <mxRectangle width="45" height="69" as="alternateBounds" />
          </mxGeometry>
        </mxCell>
        <mxCell id="AyMYqNuPUEegRnhZJM69-47" value="&lt;font style=&quot;font-size: 24px;&quot;&gt;/&lt;/font&gt;" style="endArrow=classic;html=1;rounded=0;fontSize=12;startSize=8;endSize=8;curved=1;exitX=1;exitY=0.5;exitDx=0;exitDy=0;strokeWidth=3;" edge="1" parent="1" source="AyMYqNuPUEegRnhZJM69-26">
          <mxGeometry width="50" height="50" relative="1" as="geometry">
            <mxPoint x="500" y="640" as="sourcePoint" />
            <mxPoint x="787" y="592" as="targetPoint" />
          </mxGeometry>
        </mxCell>
        <mxCell id="AyMYqNuPUEegRnhZJM69-48" value="64" style="text;strokeColor=none;fillColor=none;html=1;align=center;verticalAlign=middle;whiteSpace=wrap;rounded=0;fontSize=16;" vertex="1" parent="1">
          <mxGeometry x="700" y="560" width="60" height="30" as="geometry" />
        </mxCell>
        <mxCell id="AyMYqNuPUEegRnhZJM69-49" value="LSB" style="text;strokeColor=none;fillColor=none;html=1;align=center;verticalAlign=middle;whiteSpace=wrap;rounded=0;fontSize=12;" vertex="1" parent="1">
          <mxGeometry x="690" y="710" width="60" height="30" as="geometry" />
        </mxCell>
        <mxCell id="AyMYqNuPUEegRnhZJM69-50" value="MSB" style="text;strokeColor=none;fillColor=none;html=1;align=center;verticalAlign=middle;whiteSpace=wrap;rounded=0;fontSize=12;" vertex="1" parent="1">
          <mxGeometry x="690" y="444" width="60" height="30" as="geometry" />
        </mxCell>
        <mxCell id="AyMYqNuPUEegRnhZJM69-51" value="A0" style="text;html=1;align=center;verticalAlign=middle;resizable=0;points=[];autosize=1;strokeColor=none;fillColor=none;fontSize=16;fontColor=#FF0000;" vertex="1" parent="1">
          <mxGeometry x="654" y="681" width="40" height="30" as="geometry" />
        </mxCell>
        <mxCell id="AyMYqNuPUEegRnhZJM69-52" value="B0" style="text;html=1;align=center;verticalAlign=middle;resizable=0;points=[];autosize=1;strokeColor=none;fillColor=none;fontSize=16;fontColor=#007FFF;" vertex="1" parent="1">
          <mxGeometry x="654" y="611" width="40" height="30" as="geometry" />
        </mxCell>
        <mxCell id="AyMYqNuPUEegRnhZJM69-53" value="C0" style="text;html=1;align=center;verticalAlign=middle;resizable=0;points=[];autosize=1;strokeColor=none;fillColor=none;fontSize=16;fontColor=#00CC00;" vertex="1" parent="1">
          <mxGeometry x="654" y="551" width="40" height="30" as="geometry" />
        </mxCell>
        <mxCell id="AyMYqNuPUEegRnhZJM69-54" value="D0" style="text;html=1;align=center;verticalAlign=middle;resizable=0;points=[];autosize=1;strokeColor=none;fillColor=none;fontSize=16;fontColor=#FF8000;" vertex="1" parent="1">
          <mxGeometry x="654" y="471" width="40" height="30" as="geometry" />
        </mxCell>
        <mxCell id="AyMYqNuPUEegRnhZJM69-55" value="A1" style="text;html=1;align=center;verticalAlign=middle;resizable=0;points=[];autosize=1;strokeColor=none;fillColor=none;fontSize=16;fontColor=#FF0000;" vertex="1" parent="1">
          <mxGeometry x="614" y="681" width="40" height="30" as="geometry" />
        </mxCell>
        <mxCell id="AyMYqNuPUEegRnhZJM69-56" value="B1" style="text;html=1;align=center;verticalAlign=middle;resizable=0;points=[];autosize=1;strokeColor=none;fillColor=none;fontSize=16;fontColor=#007FFF;" vertex="1" parent="1">
          <mxGeometry x="614" y="611" width="40" height="30" as="geometry" />
        </mxCell>
        <mxCell id="AyMYqNuPUEegRnhZJM69-57" value="C1" style="text;html=1;align=center;verticalAlign=middle;resizable=0;points=[];autosize=1;strokeColor=none;fillColor=none;fontSize=16;fontColor=#00CC00;" vertex="1" parent="1">
          <mxGeometry x="614" y="551" width="40" height="30" as="geometry" />
        </mxCell>
        <mxCell id="AyMYqNuPUEegRnhZJM69-58" value="D1" style="text;html=1;align=center;verticalAlign=middle;resizable=0;points=[];autosize=1;strokeColor=none;fillColor=none;fontSize=16;fontColor=#FF8000;" vertex="1" parent="1">
          <mxGeometry x="614" y="471" width="40" height="30" as="geometry" />
        </mxCell>
        <mxCell id="AyMYqNuPUEegRnhZJM69-59" value="A2" style="text;html=1;align=center;verticalAlign=middle;resizable=0;points=[];autosize=1;strokeColor=none;fillColor=none;fontSize=16;fontColor=#FF0000;" vertex="1" parent="1">
          <mxGeometry x="564" y="681" width="40" height="30" as="geometry" />
        </mxCell>
        <mxCell id="AyMYqNuPUEegRnhZJM69-60" value="B2" style="text;html=1;align=center;verticalAlign=middle;resizable=0;points=[];autosize=1;strokeColor=none;fillColor=none;fontSize=16;fontColor=#007FFF;" vertex="1" parent="1">
          <mxGeometry x="564" y="611" width="40" height="30" as="geometry" />
        </mxCell>
        <mxCell id="AyMYqNuPUEegRnhZJM69-61" value="C2" style="text;html=1;align=center;verticalAlign=middle;resizable=0;points=[];autosize=1;strokeColor=none;fillColor=none;fontSize=16;fontColor=#00CC00;" vertex="1" parent="1">
          <mxGeometry x="564" y="551" width="40" height="30" as="geometry" />
        </mxCell>
        <mxCell id="AyMYqNuPUEegRnhZJM69-62" value="D2" style="text;html=1;align=center;verticalAlign=middle;resizable=0;points=[];autosize=1;strokeColor=none;fillColor=none;fontSize=16;fontColor=#FF8000;" vertex="1" parent="1">
          <mxGeometry x="564" y="471" width="40" height="30" as="geometry" />
        </mxCell>
        <mxCell id="AyMYqNuPUEegRnhZJM69-63" value="A3" style="text;html=1;align=center;verticalAlign=middle;resizable=0;points=[];autosize=1;strokeColor=none;fillColor=none;fontSize=16;fontColor=#FF0000;" vertex="1" parent="1">
          <mxGeometry x="524" y="681" width="40" height="30" as="geometry" />
        </mxCell>
        <mxCell id="AyMYqNuPUEegRnhZJM69-64" value="B3" style="text;html=1;align=center;verticalAlign=middle;resizable=0;points=[];autosize=1;strokeColor=none;fillColor=none;fontSize=16;fontColor=#007FFF;" vertex="1" parent="1">
          <mxGeometry x="524" y="611" width="40" height="30" as="geometry" />
        </mxCell>
        <mxCell id="AyMYqNuPUEegRnhZJM69-65" value="C3" style="text;html=1;align=center;verticalAlign=middle;resizable=0;points=[];autosize=1;strokeColor=none;fillColor=none;fontSize=16;fontColor=#00CC00;" vertex="1" parent="1">
          <mxGeometry x="524" y="551" width="40" height="30" as="geometry" />
        </mxCell>
        <mxCell id="AyMYqNuPUEegRnhZJM69-66" value="D3" style="text;html=1;align=center;verticalAlign=middle;resizable=0;points=[];autosize=1;strokeColor=none;fillColor=none;fontSize=16;fontColor=#FF8000;" vertex="1" parent="1">
          <mxGeometry x="524" y="471" width="40" height="30" as="geometry" />
        </mxCell>
        <mxCell id="AyMYqNuPUEegRnhZJM69-67" value="" style="endArrow=classic;html=1;rounded=0;fontSize=12;startSize=8;endSize=8;curved=1;exitX=1;exitY=0.16;exitDx=0;exitDy=0;exitPerimeter=0;entryX=0;entryY=0.5;entryDx=0;entryDy=0;" edge="1" parent="1" target="AyMYqNuPUEegRnhZJM69-20">
          <mxGeometry width="50" height="50" relative="1" as="geometry">
            <mxPoint x="896" y="592.16" as="sourcePoint" />
            <mxPoint x="978.7600000000002" y="571.6320000000001" as="targetPoint" />
          </mxGeometry>
        </mxCell>
        <mxCell id="AyMYqNuPUEegRnhZJM69-68" value="/" style="edgeLabel;html=1;align=center;verticalAlign=middle;resizable=0;points=[];fontSize=12;" vertex="1" connectable="0" parent="AyMYqNuPUEegRnhZJM69-67">
          <mxGeometry x="-0.0358" y="-2" relative="1" as="geometry">
            <mxPoint as="offset" />
          </mxGeometry>
        </mxCell>
        <mxCell id="AyMYqNuPUEegRnhZJM69-75" value="16" style="text;strokeColor=none;fillColor=none;html=1;align=center;verticalAlign=middle;whiteSpace=wrap;rounded=0;fontSize=16;" vertex="1" parent="1">
          <mxGeometry x="896" y="565" width="60" height="30" as="geometry" />
        </mxCell>
        <mxCell id="AyMYqNuPUEegRnhZJM69-79" value="S0" style="text;html=1;align=center;verticalAlign=middle;resizable=0;points=[];autosize=1;strokeColor=none;fillColor=none;fontSize=16;fontColor=#FF0000;" vertex="1" parent="1">
          <mxGeometry x="991" y="578" width="38" height="31" as="geometry" />
        </mxCell>
        <mxCell id="AyMYqNuPUEegRnhZJM69-80" value="S1" style="text;html=1;align=center;verticalAlign=middle;resizable=0;points=[];autosize=1;strokeColor=none;fillColor=none;fontSize=16;fontColor=#FF0000;" vertex="1" parent="1">
          <mxGeometry x="1051" y="578" width="38" height="31" as="geometry" />
        </mxCell>
        <mxCell id="AyMYqNuPUEegRnhZJM69-81" value="S2" style="text;html=1;align=center;verticalAlign=middle;resizable=0;points=[];autosize=1;strokeColor=none;fillColor=none;fontSize=16;fontColor=#FF0000;" vertex="1" parent="1">
          <mxGeometry x="1108" y="576" width="38" height="31" as="geometry" />
        </mxCell>
        <mxCell id="AyMYqNuPUEegRnhZJM69-82" value="S3" style="text;html=1;align=center;verticalAlign=middle;resizable=0;points=[];autosize=1;strokeColor=none;fillColor=none;fontSize=16;fontColor=#FF0000;" vertex="1" parent="1">
          <mxGeometry x="1169" y="576" width="38" height="31" as="geometry" />
        </mxCell>
        <mxCell id="AyMYqNuPUEegRnhZJM69-95" value="" style="endArrow=classic;html=1;rounded=0;fontSize=12;startSize=8;endSize=8;curved=1;entryX=-0.004;entryY=0.99;entryDx=0;entryDy=0;entryPerimeter=0;" edge="1" parent="1" source="AyMYqNuPUEegRnhZJM69-97" target="AyMYqNuPUEegRnhZJM69-32">
          <mxGeometry width="50" height="50" relative="1" as="geometry">
            <mxPoint x="360" y="600" as="sourcePoint" />
            <mxPoint x="660" y="680" as="targetPoint" />
          </mxGeometry>
        </mxCell>
        <mxCell id="AyMYqNuPUEegRnhZJM69-96" value="/" style="edgeLabel;html=1;align=center;verticalAlign=middle;resizable=0;points=[];fontSize=12;" vertex="1" connectable="0" parent="AyMYqNuPUEegRnhZJM69-95">
          <mxGeometry x="-0.1489" y="-1" relative="1" as="geometry">
            <mxPoint as="offset" />
          </mxGeometry>
        </mxCell>
        <mxCell id="AyMYqNuPUEegRnhZJM69-97" value="DMA" style="rounded=0;whiteSpace=wrap;html=1;" vertex="1" parent="1">
          <mxGeometry x="320" y="509" width="110" height="166" as="geometry" />
        </mxCell>
        <mxCell id="AyMYqNuPUEegRnhZJM69-98" value="64" style="text;strokeColor=none;fillColor=none;html=1;align=center;verticalAlign=middle;whiteSpace=wrap;rounded=0;fontSize=16;" vertex="1" parent="1">
          <mxGeometry x="430" y="566" width="60" height="30" as="geometry" />
        </mxCell>
        <mxCell id="AyMYqNuPUEegRnhZJM69-99" value="&lt;font style=&quot;font-size: 16px;&quot;&gt;AXI_9361&lt;/font&gt;" style="rounded=0;whiteSpace=wrap;html=1;points=[[0,0,0,0,0],[0,0.16,0,0,0],[0,0.37,0,0,0],[0,0.64,0,0,0],[0,0.84,0,0,0],[0,1,0,0,0],[0.25,0,0,0,0],[0.25,1,0,0,0],[0.5,0,0,0,0],[0.5,1,0,0,0],[0.75,0,0,0,0],[0.75,1,0,0,0],[1,0,0,0,0],[1,0.25,0,0,0],[1,0.5,0,0,0],[1,0.75,0,0,0],[1,1,0,0,0]];" vertex="1" parent="1">
          <mxGeometry x="1363" y="460" width="120" height="276" as="geometry" />
        </mxCell>
        <mxCell id="AyMYqNuPUEegRnhZJM69-102" value="&lt;font color=&quot;#000000&quot;&gt;I0&lt;/font&gt;" style="text;html=1;align=center;verticalAlign=middle;resizable=0;points=[];autosize=1;strokeColor=none;fillColor=none;fontSize=16;fontColor=#FF0000;" vertex="1" parent="1">
          <mxGeometry x="1363" y="488.5" width="40" height="30" as="geometry" />
        </mxCell>
        <mxCell id="AyMYqNuPUEegRnhZJM69-103" value="&lt;font color=&quot;#000000&quot;&gt;Q0&lt;/font&gt;" style="text;html=1;align=center;verticalAlign=middle;resizable=0;points=[];autosize=1;strokeColor=none;fillColor=none;fontSize=16;fontColor=#FF0000;" vertex="1" parent="1">
          <mxGeometry x="1363" y="547.5" width="40" height="30" as="geometry" />
        </mxCell>
        <mxCell id="AyMYqNuPUEegRnhZJM69-104" value="&lt;font color=&quot;#000000&quot;&gt;I1&lt;/font&gt;" style="text;html=1;align=center;verticalAlign=middle;resizable=0;points=[];autosize=1;strokeColor=none;fillColor=none;fontSize=16;fontColor=#FF0000;" vertex="1" parent="1">
          <mxGeometry x="1363" y="617.5" width="40" height="30" as="geometry" />
        </mxCell>
        <mxCell id="AyMYqNuPUEegRnhZJM69-105" value="&lt;font color=&quot;#000000&quot;&gt;Q1&lt;/font&gt;" style="text;html=1;align=center;verticalAlign=middle;resizable=0;points=[];autosize=1;strokeColor=none;fillColor=none;fontSize=16;fontColor=#FF0000;" vertex="1" parent="1">
          <mxGeometry x="1363" y="677.5" width="40" height="30" as="geometry" />
        </mxCell>
        <mxCell id="AyMYqNuPUEegRnhZJM69-112" value="MSK Tx" style="rounded=0;whiteSpace=wrap;html=1;" vertex="1" parent="1">
          <mxGeometry x="786" y="509" width="110" height="166" as="geometry" />
        </mxCell>
        <mxCell id="AyMYqNuPUEegRnhZJM69-113" value="" style="edgeStyle=elbowEdgeStyle;elbow=horizontal;endArrow=classic;html=1;curved=0;rounded=0;endSize=8;startSize=8;fontSize=12;exitX=1;exitY=0.5;exitDx=0;exitDy=0;" edge="1" parent="1" source="AyMYqNuPUEegRnhZJM69-20" target="AyMYqNuPUEegRnhZJM69-102">
          <mxGeometry width="50" height="50" relative="1" as="geometry">
            <mxPoint x="822" y="663" as="sourcePoint" />
            <mxPoint x="872" y="613" as="targetPoint" />
            <Array as="points">
              <mxPoint x="1251" y="547" />
            </Array>
          </mxGeometry>
        </mxCell>
        <mxCell id="AyMYqNuPUEegRnhZJM69-114" value="" style="endArrow=classic;html=1;rounded=0;fontSize=12;startSize=8;endSize=8;curved=1;entryX=-0.05;entryY=0.55;entryDx=0;entryDy=0;entryPerimeter=0;" edge="1" parent="1" target="AyMYqNuPUEegRnhZJM69-103">
          <mxGeometry width="50" height="50" relative="1" as="geometry">
            <mxPoint x="1316" y="564" as="sourcePoint" />
            <mxPoint x="1012" y="601" as="targetPoint" />
          </mxGeometry>
        </mxCell>
        <mxCell id="AyMYqNuPUEegRnhZJM69-115" value="" style="endArrow=classic;html=1;rounded=0;fontSize=12;startSize=8;endSize=8;curved=1;entryX=-0.05;entryY=0.55;entryDx=0;entryDy=0;entryPerimeter=0;" edge="1" parent="1">
          <mxGeometry width="50" height="50" relative="1" as="geometry">
            <mxPoint x="1318" y="635" as="sourcePoint" />
            <mxPoint x="1363" y="635" as="targetPoint" />
          </mxGeometry>
        </mxCell>
        <mxCell id="AyMYqNuPUEegRnhZJM69-116" value="" style="endArrow=classic;html=1;rounded=0;fontSize=12;startSize=8;endSize=8;curved=1;entryX=-0.05;entryY=0.55;entryDx=0;entryDy=0;entryPerimeter=0;" edge="1" parent="1">
          <mxGeometry width="50" height="50" relative="1" as="geometry">
            <mxPoint x="1318" y="695.5" as="sourcePoint" />
            <mxPoint x="1363" y="695.5" as="targetPoint" />
          </mxGeometry>
        </mxCell>
        <mxCell id="AyMYqNuPUEegRnhZJM69-117" value="0" style="text;html=1;align=center;verticalAlign=middle;resizable=0;points=[];autosize=1;strokeColor=none;fillColor=none;fontSize=16;fontColor=#007FFF;" vertex="1" parent="1">
          <mxGeometry x="1287" y="548" width="27" height="31" as="geometry" />
        </mxCell>
        <mxCell id="AyMYqNuPUEegRnhZJM69-118" value="0" style="text;html=1;align=center;verticalAlign=middle;resizable=0;points=[];autosize=1;strokeColor=none;fillColor=none;fontSize=16;fontColor=#00CC00;" vertex="1" parent="1">
          <mxGeometry x="1285" y="622" width="27" height="31" as="geometry" />
        </mxCell>
        <mxCell id="AyMYqNuPUEegRnhZJM69-119" value="0" style="text;html=1;align=center;verticalAlign=middle;resizable=0;points=[];autosize=1;strokeColor=none;fillColor=none;fontSize=16;fontColor=#FF8000;" vertex="1" parent="1">
          <mxGeometry x="1285" y="681" width="27" height="31" as="geometry" />
        </mxCell>
      </root>
    </mxGraphModel>
  </diagram>
  <diagram id="-IsglzSogs04axqrXLnP" name="Page-3">
    <mxGraphModel dx="1349" dy="540" grid="0" gridSize="10" guides="1" tooltips="1" connect="1" arrows="1" fold="1" page="0" pageScale="1" pageWidth="850" pageHeight="1100" math="0" shadow="0">
      <root>
        <mxCell id="0" />
        <mxCell id="1" parent="0" />
        <mxCell id="86N5MFJoKE4ZI51yogIH-98" value="&lt;font style=&quot;font-size: 12px;&quot;&gt;64&lt;/font&gt;" style="text;strokeColor=none;fillColor=none;html=1;align=center;verticalAlign=middle;whiteSpace=wrap;rounded=0;fontSize=16;" vertex="1" parent="1">
          <mxGeometry x="405" y="525" width="60" height="30" as="geometry" />
        </mxCell>
        <mxCell id="86N5MFJoKE4ZI51yogIH-25" value="" style="whiteSpace=wrap;html=1;shadow=1;fontSize=18;fillColor=#f5f5f5;strokeColor=#666666;points=[[0,0,0,0,0],[0,0.25,0,0,0],[0,0.5,0,0,0],[0,0.75,0,0,0],[0,1,0,0,0],[0.25,0,0,0,0],[0.25,1,0,0,0],[0.5,0,0,0,0],[0.5,1,0,0,0],[0.75,0,0,0,0],[0.75,1,0,0,0],[1,0,0,0,0],[1,0.16,0,0,0],[1,0.37,0,0,0],[1,0.63,0,0,0],[1,0.84,0,0,0],[1,1,0,0,0]];" vertex="1" parent="1">
          <mxGeometry x="519" y="454" width="229" height="276" as="geometry" />
        </mxCell>
        <mxCell id="86N5MFJoKE4ZI51yogIH-95" value="" style="endArrow=classic;html=1;rounded=0;fontSize=12;startSize=8;endSize=8;curved=1;entryX=0.006;entryY=0.348;entryDx=0;entryDy=0;entryPerimeter=0;exitX=1;exitY=0.25;exitDx=0;exitDy=0;" edge="1" parent="1" source="86N5MFJoKE4ZI51yogIH-97" target="86N5MFJoKE4ZI51yogIH-25">
          <mxGeometry width="50" height="50" relative="1" as="geometry">
            <mxPoint x="360" y="600" as="sourcePoint" />
            <mxPoint x="519.28" y="591.31" as="targetPoint" />
          </mxGeometry>
        </mxCell>
        <mxCell id="86N5MFJoKE4ZI51yogIH-112" value="/" style="edgeLabel;html=1;align=center;verticalAlign=middle;resizable=0;points=[];fontSize=12;" vertex="1" connectable="0" parent="86N5MFJoKE4ZI51yogIH-95">
          <mxGeometry x="0.1236" y="1" relative="1" as="geometry">
            <mxPoint x="-10" y="1" as="offset" />
          </mxGeometry>
        </mxCell>
        <mxCell id="86N5MFJoKE4ZI51yogIH-97" value="" style="rounded=0;whiteSpace=wrap;html=1;" vertex="1" parent="1">
          <mxGeometry x="143" y="509" width="232" height="166" as="geometry" />
        </mxCell>
        <mxCell id="86N5MFJoKE4ZI51yogIH-99" value="" style="rounded=0;whiteSpace=wrap;html=1;points=[[0,0,0,0,0],[0,0.16,0,0,0],[0,0.37,0,0,0],[0,0.64,0,0,0],[0,0.84,0,0,0],[0,1,0,0,0],[0.25,0,0,0,0],[0.25,1,0,0,0],[0.5,0,0,0,0],[0.5,1,0,0,0],[0.75,0,0,0,0],[0.75,1,0,0,0],[1,0,0,0,0],[1,0.25,0,0,0],[1,0.5,0,0,0],[1,0.75,0,0,0],[1,1,0,0,0]];" vertex="1" parent="1">
          <mxGeometry x="978.5" y="454" width="212" height="275" as="geometry" />
        </mxCell>
        <mxCell id="86N5MFJoKE4ZI51yogIH-102" value="&lt;span style=&quot;color: rgb(0, 0, 0); font-size: 12px;&quot;&gt;data_i0[15:0]&lt;/span&gt;" style="text;html=1;align=center;verticalAlign=middle;resizable=0;points=[];autosize=1;strokeColor=none;fillColor=none;fontSize=12;fontColor=#FF0000;" vertex="1" parent="1">
          <mxGeometry x="978.5" y="480" width="87" height="26" as="geometry" />
        </mxCell>
        <mxCell id="86N5MFJoKE4ZI51yogIH-103" value="&lt;font color=&quot;#000000&quot; style=&quot;font-size: 12px;&quot;&gt;data_q0&lt;/font&gt;" style="text;html=1;align=center;verticalAlign=middle;resizable=0;points=[];autosize=1;strokeColor=none;fillColor=none;fontSize=12;fontColor=#FF0000;" vertex="1" parent="1">
          <mxGeometry x="985.5" y="598" width="61" height="26" as="geometry" />
        </mxCell>
        <mxCell id="86N5MFJoKE4ZI51yogIH-104" value="&lt;font color=&quot;#000000&quot; style=&quot;font-size: 12px;&quot;&gt;data_i1&lt;/font&gt;" style="text;html=1;align=center;verticalAlign=middle;resizable=0;points=[];autosize=1;strokeColor=none;fillColor=none;fontSize=12;fontColor=#FF0000;" vertex="1" parent="1">
          <mxGeometry x="984.5" y="629" width="57" height="26" as="geometry" />
        </mxCell>
        <mxCell id="86N5MFJoKE4ZI51yogIH-105" value="&lt;font color=&quot;#000000&quot; style=&quot;font-size: 12px;&quot;&gt;data_q1&lt;/font&gt;" style="text;html=1;align=center;verticalAlign=middle;resizable=0;points=[];autosize=1;strokeColor=none;fillColor=none;fontSize=12;fontColor=#FF0000;" vertex="1" parent="1">
          <mxGeometry x="983" y="665" width="61" height="26" as="geometry" />
        </mxCell>
        <mxCell id="86N5MFJoKE4ZI51yogIH-113" value="&lt;span style=&quot;font-size: 12px;&quot;&gt;m_axis_data[63:0]&lt;/span&gt;" style="text;strokeColor=none;fillColor=none;html=1;align=center;verticalAlign=middle;whiteSpace=wrap;rounded=0;fontSize=16;" vertex="1" parent="1">
          <mxGeometry x="295" y="533" width="60" height="30" as="geometry" />
        </mxCell>
        <mxCell id="86N5MFJoKE4ZI51yogIH-114" value="&lt;span style=&quot;color: rgb(0, 0, 0); font-family: Helvetica; font-size: 12px; font-style: normal; font-variant-ligatures: normal; font-variant-caps: normal; font-weight: 400; letter-spacing: normal; orphans: 2; text-align: center; text-indent: 0px; text-transform: none; widows: 2; word-spacing: 0px; -webkit-text-stroke-width: 0px; white-space: normal; background-color: rgb(255, 255, 255); text-decoration-thickness: initial; text-decoration-style: initial; text-decoration-color: initial; display: inline !important; float: none;&quot;&gt;dac_dma&lt;/span&gt;" style="text;whiteSpace=wrap;html=1;" vertex="1" parent="1">
          <mxGeometry x="231.5" y="675" width="55" height="36" as="geometry" />
        </mxCell>
        <mxCell id="86N5MFJoKE4ZI51yogIH-115" value="&lt;span style=&quot;color: rgb(0, 0, 0); font-family: Helvetica; font-size: 12px; font-style: normal; font-variant-ligatures: normal; font-variant-caps: normal; font-weight: 400; letter-spacing: normal; orphans: 2; text-indent: 0px; text-transform: none; widows: 2; word-spacing: 0px; -webkit-text-stroke-width: 0px; white-space: normal; background-color: rgb(255, 255, 255); text-decoration-thickness: initial; text-decoration-style: initial; text-decoration-color: initial; float: none; display: inline !important;&quot;&gt;msk_tx&lt;/span&gt;" style="text;whiteSpace=wrap;html=1;align=center;" vertex="1" parent="1">
          <mxGeometry x="565.5" y="727" width="77" height="36" as="geometry" />
        </mxCell>
        <mxCell id="86N5MFJoKE4ZI51yogIH-116" value="&lt;span style=&quot;color: rgb(0, 0, 0); font-family: Helvetica; font-size: 12px; font-style: normal; font-variant-ligatures: normal; font-variant-caps: normal; font-weight: 400; letter-spacing: normal; orphans: 2; text-align: center; text-indent: 0px; text-transform: none; widows: 2; word-spacing: 0px; -webkit-text-stroke-width: 0px; white-space: normal; background-color: rgb(255, 255, 255); text-decoration-thickness: initial; text-decoration-style: initial; text-decoration-color: initial; display: inline !important; float: none;&quot;&gt;s_axis_data[63:0]&lt;/span&gt;" style="text;whiteSpace=wrap;html=1;" vertex="1" parent="1">
          <mxGeometry x="524" y="535" width="126" height="36" as="geometry" />
        </mxCell>
        <mxCell id="86N5MFJoKE4ZI51yogIH-117" value="&lt;span style=&quot;font-size: 12px;&quot;&gt;m_axis_valid&lt;/span&gt;" style="text;strokeColor=none;fillColor=none;html=1;align=center;verticalAlign=middle;whiteSpace=wrap;rounded=0;fontSize=16;" vertex="1" parent="1">
          <mxGeometry x="306" y="574" width="60" height="30" as="geometry" />
        </mxCell>
        <mxCell id="86N5MFJoKE4ZI51yogIH-118" value="&lt;span style=&quot;font-size: 12px;&quot;&gt;m_axis_ready&lt;/span&gt;" style="text;strokeColor=none;fillColor=none;html=1;align=center;verticalAlign=middle;whiteSpace=wrap;rounded=0;fontSize=16;" vertex="1" parent="1">
          <mxGeometry x="306" y="615" width="60" height="30" as="geometry" />
        </mxCell>
        <mxCell id="86N5MFJoKE4ZI51yogIH-119" value="&lt;span style=&quot;font-size: 12px;&quot;&gt;s_axis_ready&lt;/span&gt;" style="text;strokeColor=none;fillColor=none;html=1;align=center;verticalAlign=middle;whiteSpace=wrap;rounded=0;fontSize=16;" vertex="1" parent="1">
          <mxGeometry x="529" y="615" width="60" height="30" as="geometry" />
        </mxCell>
        <mxCell id="86N5MFJoKE4ZI51yogIH-120" value="&lt;span style=&quot;font-size: 12px;&quot;&gt;s_axis_valid&lt;/span&gt;" style="text;strokeColor=none;fillColor=none;html=1;align=center;verticalAlign=middle;whiteSpace=wrap;rounded=0;fontSize=16;" vertex="1" parent="1">
          <mxGeometry x="526" y="576" width="60" height="30" as="geometry" />
        </mxCell>
        <mxCell id="86N5MFJoKE4ZI51yogIH-121" value="" style="endArrow=classic;html=1;rounded=0;fontSize=12;startSize=8;endSize=8;curved=1;exitX=1;exitY=0.5;exitDx=0;exitDy=0;entryX=0;entryY=0.5;entryDx=0;entryDy=0;entryPerimeter=0;" edge="1" parent="1" source="86N5MFJoKE4ZI51yogIH-97" target="86N5MFJoKE4ZI51yogIH-25">
          <mxGeometry width="50" height="50" relative="1" as="geometry">
            <mxPoint x="504" y="639" as="sourcePoint" />
            <mxPoint x="554" y="589" as="targetPoint" />
          </mxGeometry>
        </mxCell>
        <mxCell id="86N5MFJoKE4ZI51yogIH-122" value="" style="endArrow=classic;html=1;rounded=0;fontSize=12;startSize=8;endSize=8;curved=1;exitX=0;exitY=0.652;exitDx=0;exitDy=0;exitPerimeter=0;entryX=1;entryY=0.75;entryDx=0;entryDy=0;" edge="1" parent="1" source="86N5MFJoKE4ZI51yogIH-25" target="86N5MFJoKE4ZI51yogIH-97">
          <mxGeometry width="50" height="50" relative="1" as="geometry">
            <mxPoint x="504" y="639" as="sourcePoint" />
            <mxPoint x="554" y="589" as="targetPoint" />
          </mxGeometry>
        </mxCell>
        <mxCell id="86N5MFJoKE4ZI51yogIH-123" value="&lt;span style=&quot;color: rgb(0, 0, 0); font-family: Helvetica; font-style: normal; font-variant-ligatures: normal; font-variant-caps: normal; font-weight: 400; letter-spacing: normal; orphans: 2; text-indent: 0px; text-transform: none; widows: 2; word-spacing: 0px; -webkit-text-stroke-width: 0px; white-space: normal; background-color: rgb(255, 255, 255); text-decoration-thickness: initial; text-decoration-style: initial; text-decoration-color: initial; float: none; display: inline !important;&quot;&gt;&lt;font style=&quot;font-size: 12px;&quot;&gt;AXI_9361&lt;/font&gt;&lt;/span&gt;" style="text;whiteSpace=wrap;html=1;align=center;" vertex="1" parent="1">
          <mxGeometry x="1027.0033333333336" y="728.9966666666668" width="98" height="41" as="geometry" />
        </mxCell>
        <mxCell id="86N5MFJoKE4ZI51yogIH-124" value="&lt;font style=&quot;font-size: 12px;&quot; color=&quot;#000000&quot;&gt;tx_samples[15:0]&lt;/font&gt;" style="text;html=1;align=center;verticalAlign=middle;resizable=0;points=[];autosize=1;strokeColor=none;fillColor=none;fontSize=16;fontColor=#FF0000;" vertex="1" parent="1">
          <mxGeometry x="627" y="480" width="109" height="31" as="geometry" />
        </mxCell>
        <mxCell id="86N5MFJoKE4ZI51yogIH-125" value="" style="edgeStyle=elbowEdgeStyle;elbow=horizontal;endArrow=classic;html=1;curved=0;rounded=0;endSize=8;startSize=8;fontSize=12;entryX=-0.017;entryY=0.731;entryDx=0;entryDy=0;entryPerimeter=0;exitX=1;exitY=0.16;exitDx=0;exitDy=0;exitPerimeter=0;" edge="1" parent="1" source="86N5MFJoKE4ZI51yogIH-25" target="86N5MFJoKE4ZI51yogIH-102">
          <mxGeometry width="50" height="50" relative="1" as="geometry">
            <mxPoint x="924" y="682" as="sourcePoint" />
            <mxPoint x="974" y="632" as="targetPoint" />
          </mxGeometry>
        </mxCell>
        <mxCell id="86N5MFJoKE4ZI51yogIH-127" value="&lt;font color=&quot;#000000&quot; style=&quot;font-size: 12px;&quot;&gt;enable_0&lt;/font&gt;" style="text;html=1;align=center;verticalAlign=middle;resizable=0;points=[];autosize=1;strokeColor=none;fillColor=none;fontSize=12;fontColor=#FF0000;" vertex="1" parent="1">
          <mxGeometry x="979.5" y="511.5" width="67" height="26" as="geometry" />
        </mxCell>
        <mxCell id="86N5MFJoKE4ZI51yogIH-128" value="&lt;font color=&quot;#000000&quot; style=&quot;font-size: 12px;&quot;&gt;valid_0&lt;/font&gt;" style="text;html=1;align=center;verticalAlign=middle;resizable=0;points=[];autosize=1;strokeColor=none;fillColor=none;fontSize=12;fontColor=#FF0000;" vertex="1" parent="1">
          <mxGeometry x="978.5" y="540" width="56" height="26" as="geometry" />
        </mxCell>
        <mxCell id="86N5MFJoKE4ZI51yogIH-131" value="" style="edgeStyle=elbowEdgeStyle;elbow=horizontal;endArrow=classic;html=1;curved=0;rounded=0;endSize=8;startSize=8;fontSize=12;entryX=1;entryY=0.37;entryDx=0;entryDy=0;entryPerimeter=0;exitX=0;exitY=0.262;exitDx=0;exitDy=0;exitPerimeter=0;" edge="1" parent="1" source="86N5MFJoKE4ZI51yogIH-99" target="86N5MFJoKE4ZI51yogIH-25">
          <mxGeometry width="50" height="50" relative="1" as="geometry">
            <mxPoint x="924" y="682" as="sourcePoint" />
            <mxPoint x="974" y="632" as="targetPoint" />
            <Array as="points">
              <mxPoint x="780" y="542" />
            </Array>
          </mxGeometry>
        </mxCell>
        <mxCell id="86N5MFJoKE4ZI51yogIH-132" value="" style="edgeStyle=elbowEdgeStyle;elbow=horizontal;endArrow=classic;html=1;curved=0;rounded=0;endSize=8;startSize=8;fontSize=12;entryX=1;entryY=0.63;entryDx=0;entryDy=0;entryPerimeter=0;exitX=-0.019;exitY=0.742;exitDx=0;exitDy=0;exitPerimeter=0;" edge="1" parent="1" source="86N5MFJoKE4ZI51yogIH-128" target="86N5MFJoKE4ZI51yogIH-25">
          <mxGeometry width="50" height="50" relative="1" as="geometry">
            <mxPoint x="924" y="682" as="sourcePoint" />
            <mxPoint x="974" y="632" as="targetPoint" />
            <Array as="points">
              <mxPoint x="798" y="601" />
            </Array>
          </mxGeometry>
        </mxCell>
        <mxCell id="86N5MFJoKE4ZI51yogIH-133" value="&lt;font style=&quot;font-size: 12px;&quot; color=&quot;#000000&quot;&gt;tx_enable&lt;/font&gt;" style="text;html=1;align=center;verticalAlign=middle;resizable=0;points=[];autosize=1;strokeColor=none;fillColor=none;fontSize=16;fontColor=#FF0000;" vertex="1" parent="1">
          <mxGeometry x="670" y="537.5" width="70" height="31" as="geometry" />
        </mxCell>
        <mxCell id="86N5MFJoKE4ZI51yogIH-134" value="&lt;font style=&quot;font-size: 12px;&quot; color=&quot;#000000&quot;&gt;tx_valid&lt;/font&gt;" style="text;html=1;align=center;verticalAlign=middle;resizable=0;points=[];autosize=1;strokeColor=none;fillColor=none;fontSize=16;fontColor=#FF0000;" vertex="1" parent="1">
          <mxGeometry x="683" y="611" width="59" height="31" as="geometry" />
        </mxCell>
        <mxCell id="86N5MFJoKE4ZI51yogIH-135" value="" style="endArrow=classic;html=1;rounded=0;fontSize=12;startSize=8;endSize=8;curved=1;" edge="1" parent="1">
          <mxGeometry width="50" height="50" relative="1" as="geometry">
            <mxPoint x="912.5" y="615" as="sourcePoint" />
            <mxPoint x="978.5" y="615" as="targetPoint" />
          </mxGeometry>
        </mxCell>
        <mxCell id="86N5MFJoKE4ZI51yogIH-136" value="" style="endArrow=classic;html=1;rounded=0;fontSize=12;startSize=8;endSize=8;curved=1;" edge="1" parent="1">
          <mxGeometry width="50" height="50" relative="1" as="geometry">
            <mxPoint x="911.5" y="645" as="sourcePoint" />
            <mxPoint x="977.5" y="645" as="targetPoint" />
          </mxGeometry>
        </mxCell>
        <mxCell id="86N5MFJoKE4ZI51yogIH-137" value="" style="endArrow=classic;html=1;rounded=0;fontSize=12;startSize=8;endSize=8;curved=1;" edge="1" parent="1">
          <mxGeometry width="50" height="50" relative="1" as="geometry">
            <mxPoint x="911.5" y="679" as="sourcePoint" />
            <mxPoint x="977.5" y="679" as="targetPoint" />
          </mxGeometry>
        </mxCell>
        <mxCell id="86N5MFJoKE4ZI51yogIH-138" value="&lt;font style=&quot;font-size: 12px;&quot;&gt;16;b0&lt;/font&gt;" style="text;strokeColor=none;fillColor=none;html=1;align=center;verticalAlign=middle;whiteSpace=wrap;rounded=0;fontSize=16;" vertex="1" parent="1">
          <mxGeometry x="864" y="599" width="60" height="30" as="geometry" />
        </mxCell>
        <mxCell id="86N5MFJoKE4ZI51yogIH-139" value="&lt;font style=&quot;font-size: 12px;&quot;&gt;16;b0&lt;/font&gt;" style="text;strokeColor=none;fillColor=none;html=1;align=center;verticalAlign=middle;whiteSpace=wrap;rounded=0;fontSize=16;" vertex="1" parent="1">
          <mxGeometry x="864" y="662.5" width="60" height="30" as="geometry" />
        </mxCell>
        <mxCell id="86N5MFJoKE4ZI51yogIH-140" value="&lt;font style=&quot;font-size: 12px;&quot;&gt;16;b0&lt;/font&gt;" style="text;strokeColor=none;fillColor=none;html=1;align=center;verticalAlign=middle;whiteSpace=wrap;rounded=0;fontSize=16;" vertex="1" parent="1">
          <mxGeometry x="864" y="629" width="60" height="30" as="geometry" />
        </mxCell>
      </root>
    </mxGraphModel>
  </diagram>
</mxfile>
